<?xml version="1.0" encoding="utf-8" ?>
<svg baseProfile="full" height="300mm" version="1.1" viewBox="0,0,200,300" width="200mm" xmlns="http://www.w3.org/2000/svg" xmlns:ev="http://www.w3.org/2001/xml-events" xmlns:xlink="http://www.w3.org/1999/xlink"><defs /><rect fill="#222222" height="300" width="200" x="0" y="0" /><text fill="#FFFFFF" style="font-size:12px; font-family:Arial; font-weight:bold;" x="10" y="20">Over 50km Cycling</text><text fill="#FFFFFF" style="font-size:4px; font-family:Arial" x="10" y="280">ATHLETE</text><text fill="#FFFFFF" style="font-size:9px; font-family:Arial" x="10" y="290">Nadines</text><text fill="#FFFFFF" style="font-size:4px; font-family:Arial" x="120" y="280">STATISTICS</text><text fill="#FFFFFF" style="font-size:3px; font-family:Arial" x="120" y="285">Number: 5</text><text fill="#FFFFFF" style="font-size:3px; font-family:Arial" x="120" y="290">Weekly: 1.2</text><text fill="#FFFFFF" style="font-size:3px; font-family:Arial" x="141" y="285">Total: 362.7 km</text><text fill="#FFFFFF" style="font-size:3px; font-family:Arial" x="141" y="290">Avg: 72.5 km</text><text fill="#FFFFFF" style="font-size:3px; font-family:Arial" x="167" y="285">Min: 58.2 km</text><text fill="#FFFFFF" style="font-size:3px; font-family:Arial" x="167" y="290">Max: 91.1 km</text><polyline fill="none" points="82.46215844532708,34.329344019692144 80.92227617456228,34.30401002054896 80.84749771897623,34.19543544361295 80.89181087783072,34.1628629772822 81.1078375273355,34.19181628280967 81.09675923761097,34.4885857038571 79.51810295284668,34.46325186837021 79.26607186176989,34.41258411927265 78.936492742665,34.25334194415882 78.88110129407141,34.13029046790325 78.98080590153404,34.054287778657454 79.06112350198964,34.09409874033918 79.12205409542366,34.28591429093649 79.04450606741011,34.71296996741148 78.27456493202772,34.71658905169534 77.79819847416366,34.79620877162051 77.43815405834175,34.94459029073914 76.94793973834021,35.328206664298705 76.72083479911089,35.653913993746755 76.56296917064174,36.08456485640636 76.53804301877972,36.51520819654252 76.61005190193828,36.8734687726901 77.52678037607984,39.088054964331604 77.68741557699104,39.15318684128033 78.13331673812354,39.080818078493394 78.24133006288321,39.16404213738133 78.2828736493102,39.37029185528809 76.39679482487554,39.905809383863016 76.15861159595079,39.76469440690198 76.11429843706719,39.81896949361362 76.18076817538531,40.06501505507731 75.43021404700994,40.54262590157123 73.18132123431133,41.179425974482 69.002036438309,42.18524713647457 65.67301037813013,42.78582582411582 64.59841627551941,42.91606987481646 64.48209423347726,43.08972753917442 64.68427302083,44.413827025098726 64.47655508860771,44.82985453753827 65.23264836185263,45.33269581685454 65.67024080570263,45.737855433601 66.14937683599419,46.21173904157513 66.37371220278146,46.63858823879673 66.49557338966406,48.39655030391259 66.5011125345336,50.15800393093741 66.65343901816232,51.156225724354954 66.65620859057526,51.7240367690265 66.9525528405211,52.83430468990082 67.04117915827374,54.05301033691103 66.91931797137659,56.157576902196524 67.1131880414323,56.64210805072071 67.6310980857379,57.07239266392207 67.8748204595322,57.47012807210376 67.88866832166968,58.01971554449847 67.7945028590766,58.149879206261176 67.42338015353016,58.1607261470981 67.03564001341874,58.25834840010975 66.43741236865753,57.99802153413657 66.19922913971823,57.95824913229626 64.36300261902215,57.9871745218079 63.44350457243854,58.095644430606626 62.94221196271246,58.31258281828741 61.24169449105102,59.31409032437659 60.78471504019399,59.69009709204147 59.87075613847992,60.15648214466637 58.81000989800668,60.31917253206848 58.10376892850036,60.68793344104233 56.8214568936819,60.96630812586409 55.53914485886344,61.50858746019003 55.21233531218604,61.739956351151704 54.49224648052768,62.56057540373331 54.3565374314785,62.77024461972178 54.35099828663806,62.92207294054788 54.44516374923114,63.077515254206446 54.75258628890151,63.16065841563068 54.805208165053045,63.53299174791209 55.03508267669531,63.88724543449098 58.16746909437643,66.87289602137025 58.477661206474295,67.22710180015565 58.74907930457266,68.15957843812976 59.26421977645077,69.07394963709521 59.43316369462991,70.54843742199046 59.9676911735005,71.53138038468023 60.164330815998255,72.48176231003526 60.776406322896946,74.42938898047214 61.56573446528637,76.32989334998274 61.65159121059696,76.94770644354867 61.52419087884482,78.10019368139547 61.62389548630745,79.07922368980326 61.31370337420958,80.59285058125351 61.213998766746954,81.82824821874965 61.38571225736814,82.29060338578711 62.89512923140137,83.76430276887913 63.04191657017509,84.10020724539936 63.03360785287805,93.5506165473762 58.58013538636442,93.54339560334847 51.545421415619785,93.59394216725013 46.139216033378034,93.60477356035881 45.865028362866724,93.56866889821322 46.025663563777925,93.55422701859243 45.04523492374574,93.59394216725013 44.613181624765275,93.52534323406871 42.3310539429076,93.5072908516031 32.54061540488328,93.51090132914578 24.02971932926448,94.09218134153161 23.780457810600637,94.2618692040869 23.556122443813365,97.1391648983863 23.365021946199704,97.77089769362647 22.683707128555398,98.53617524539186 20.523440633609425,100.63695703871599 19.368528930528555,101.57539299127166 19.144193563741283,102.0193329844642 19.160810998335364,102.27197820532456 19.393455082390574,102.44521915181394 19.786734367371537,102.41273656673002 20.09138733461441,102.13121904331638 20.25202253551106,102.14204669959508 20.26587039764854,102.27919660230873 19.822738808958093,102.54988496931037 19.63994702861237,102.84222508023959 19.29098090250045,102.87470710161324 19.25220688850095,103.01546203497674 19.351911495949025,103.07320741708645 19.925212988848216,102.99741657543382 20.24371381821402,103.21396122151236 20.45420132287836,103.12012544084246 20.59821908919548,103.13456173795203 20.67853668963653,103.24644275501487 20.650840965347015,103.9177182365238 20.778241297099157,104.16312623340491 20.93887649801036,104.2966560330351 21.37369936943287,104.33274504441397 21.418012528301915,104.45183840860227 21.346003645143355,104.49153606932668 21.110589988631546,104.40492290929797 20.722849848520127,104.45905616982782 20.58160165461595,104.39770513227995 20.30741398410464,104.10899232562042 20.28248783222807,103.68313478833807 20.15508750047593,103.61817282494849 20.088617762186914,103.72283368201533 20.22155723879405,104.36522510965915 20.116313486461877,104.71167648687515 20.207709376642015,104.82355037495108 20.528979778449866,104.90655325548687 20.492975336877862,105.08338455105877 20.39050115698774,105.10503727593641 20.085848189744866,104.89572680859055 19.698108049618895,104.7658090765035 19.5734772903088,104.83076802779397 19.42115080669464,105.11586363128481 18.811844872208894,105.34321599953364 18.12776048213709,105.37208599211408 17.487989250934334,105.63913182716715 16.842678874891135,105.48395689529934 16.745743839856004,105.6066534335423 16.817752723014564,106.0 16.75959170202259,105.63913182716715 16.853757164615672,105.50200054201923 17.49075882337638,105.65356665508443 18.15545620644116,105.37569473882468 18.886623327809502,105.32878099062691 19.42115080669464,105.11947241533926 19.592864297315828,104.84159450309926 19.689799332336406,104.78746207921358 20.072000327607384,104.90294444038409 20.393270729415235,105.1230811988753 20.51790148873988,105.09781970308177 20.578832082188455,105.00038226352444 20.52621020602237,104.870465080754 20.235405100946082,104.80911506297525 20.144009210765944,104.71528532986486 20.235405100946082,104.36883400316037 20.108004769179388,103.78057741370867 20.168935362642515,103.64343583097252 20.2991052668076,103.74809658121012 20.418196881277254,104.26417587780634 20.595449516767985,104.41935845701846 20.739467283099657,104.47349168597611 21.135516140493564,104.42657622771367 21.323847065708833,104.51318931196693 21.434629962881445,104.46627392895971 21.40416466614988,104.32913614565041 20.886254621858825,104.25695805975556 20.758854290106683,104.1198191166477 20.659149682644056,103.90328239620976 20.69792369665811,103.26087897843354 20.625914813484997,103.11651636524584 20.47081875745789,103.09125282135938 20.271409542532638,103.19591590670643 19.95290871313773,102.97937110274506 19.293750474927947,103.0298983931425 19.29098090250045,102.90718908037343 19.642716601039865,102.86748887832982 19.83104752624058,102.56793075518362 20.263100825235597,102.33333451257386 20.36557500512572,102.18896648869304 20.17170493505546,102.06986223497552 19.77565607766155,102.39108148631203 19.296520047369995,102.36581720188406 19.207893729617354,102.26115060590746 19.191276295037824,102.06986223497552 19.401763799687615,101.6187045607112 20.362805432683672,100.9509761077461 23.049290689246845,98.35207761920356 23.50350056766183,97.81782577192462 23.67244448585552,97.33049139069044 23.94109301151184,94.24381735915631 33.01144271789235,93.64809908538518 37.83603788995242,93.65531999883751 44.64641649390978,93.71308723062612 45.52991009889229,93.62643633235712 46.194607481957064,93.63365725214317 46.2860033721372,93.9549860484276 46.219533633833635,93.78529608063945 46.27215550999972,93.63365725214317 51.376477497426094,93.64809908538518 51.42079065629514,93.55422701859243 51.650665167937404,93.51812228266317 51.67836089222692,93.46035459554878 51.67005217494443,91.65865713171115 51.778065499689546,90.2612583060054 52.417836730892304,89.96876948917816 53.17669957655016,89.71960962033154 55.97950687512639,89.41267009894727 56.39771231196937,89.28267103555481 56.59158238203963,89.12378236332188 56.60819981661916,88.00431050968655 56.52234307130857,87.71179499649224 56.225998821348185,87.25676398660471 55.94627200598188,83.79680985317646 56.20661181435571,81.99802026139878 56.2149205316382,80.24244878287573 56.4946473470045,76.78512554805093 56.52788221616356,76.55751049733226 56.59989109932212,76.53944572094588 56.547269223156036,76.3046024264113 56.62481725119869,74.71483527728924 56.622047678756644,69.94130605223654 59.477476853498956,69.8943250265911 59.308532935305266,69.05226533647874 58.7989316082967,68.14512170467242 58.53305265506788,67.1548153190979 61.28323807749257,65.40903254459954 62.76218975480879,64.63188457385513 62.571089257180574,64.06075559001329 62.753881037511746,63.35947788384692 62.73449403050472,62.27137356354979 62.86466393469891,61.87010039951747 63.23024749537581,61.66765380563629 63.78139240882592,61.23021888969379 64.0417322171852,61.12176275285856 65.38774441790883,60.86146608056333 66.52049954152608,59.52017166590667 66.79745678446488,59.37193789216508 67.31259725635755,59.24539616155198 67.5867849268543,58.80791832383693 67.9163640459592,58.5295192994854 67.96344677727029,58.182420014469244 68.63091373276256,58.18965129934804 68.68353560892865,58.139032260660315 68.57829185661103,57.50990126044053 68.4010392211203,57.23510337825974 68.04930352258089,57.018155520798246 67.53416305070277,56.90606504733114 67.12426633115683,56.1431131396148 67.07164445499075,53.181479194532585 66.76976106018992,51.756586050778424 66.62851286628575,50.5703178279382 66.55373441068514,50.59563512340719 66.60358671442373,50.80902272444655 66.62020414900326,50.47266515921001 66.53988654854766,49.007828747318854 66.60358671442373,48.95357387664626 66.9110092540941,48.96080786629864 68.06869052958791,48.58825464112124 68.66414860192162,48.49059412717179 69.77197757367685,48.17590761906649 71.24262053371058,47.973348662852004 72.81296810120693,47.94441153333355 72.66064161757822,47.40545129287602 72.53601085825358,46.35643451221222 72.64679375542619,45.48101394873629 71.99871380694094,41.57018151453303 75.22803525965719,40.71630027955325 76.33309465899947,40.07586994976191 76.92855273131863,39.90219106121731 78.33549552547629,39.42818620285652 78.2496387801657,39.14594997456152 78.1610124624276,39.06634430044505 77.65971985270153,39.14594997456152 77.51847165879735,39.073581190530604 76.58235617764876,36.782999421559 76.55466045335925,36.189512245971855 76.67929121268389,35.75162535347408 76.98394417991221,35.292016695388156 77.24705356071354,35.071256734585404 77.46584978263127,34.922875977872536 78.01699469608138,34.74554170688134 79.03342777770013,34.7310653835375 79.10543666084413,34.63334997864331 79.1303628127207,34.25334194415882 79.07497136412712,34.08324121171245 78.972497184237,34.03619186571632 78.87556214920187,34.123052126642506 78.90879701836093,34.231627022392786 79.42670706266654,34.4487753792564 81.069063513336,34.4885857038571 81.13830282406707,34.41258411927265 81.24908572123968,34.4487753792564 81.13553325162502,34.423441502853166 81.45403408101993,34.37639280617077 83.254256160144,34.423441502853166 83.16009069753636,34.0" stroke="#4dd2ff" stroke-linecap="round" stroke-linejoin="round" stroke-width="0.5"><title>2023-06-04 91.1km</title></polyline><polyline fill="none" points="127.26753828511573,34.57005166741328 125.77772146978532,34.54338290266605 125.69353661549394,34.456709200929254 125.70118978405662,34.40670499173757 125.91802956027095,34.42003945828583 125.91547850407369,34.70339502128809 124.97668982591131,34.68672714488275 125.19863171450561,34.66672567704518 125.35424614213116,34.63005627356324 125.54812641261378,35.00008117422112 125.85170209931675,35.326764813402406 126.11701194313355,35.813448049128056 126.27517742695636,36.006785069776015 126.79814394604182,36.89344756238097 126.98947316032718,37.320099883248986 127.9359150070668,38.993299598789235 128.42826885187242,39.666544387175236 128.88490790998912,40.433085939628654 129.0150117757148,40.79635094517471 131.35433030253625,44.7952147508513 132.24719996926433,46.16466380379461 132.61455206072424,46.94431325497135 133.09925273693807,47.594000697588854 133.80844635794347,48.82335841576605 134.27784069703193,49.58959110176329 134.45896568655735,49.99268575368478 134.43090406846022,50.24586551606262 134.28549386559462,50.55567375665851 134.35182132656337,50.85215295734088 134.48957836085174,51.002056699146124 134.62988645133737,51.00871906473367 135.2906100047112,51.44176863857501 135.47683710663114,51.64829706810997 135.81357652379666,52.157947905552646 135.96153778285952,52.461068147767946 136.64011872957053,53.57358472450687 136.80083526957605,54.046554320197174 136.93859230387898,54.306350333654336 137.28043383342447,54.7293451829355 137.2982912267471,54.84258656297061 137.18349369816133,55.172315604366304 137.2447190467501,55.30886865554021 137.35186340675864,55.41877661320359 137.6630922620243,55.515361955564 137.79829824012995,55.635260430435665 138.28554997254105,56.44455859820482 139.04831577354344,57.84660781922321 140.71925757842837,60.64711718198669 140.94375052320538,61.14990696015593 141.015180096525,61.45623700516808 141.01007798414503,61.68598183139147 140.90038256795378,62.00562294656993 140.99222059080785,62.17543046195533 141.10191600701364,62.20539636248759 141.191202973685,62.278646175360336 141.30600050227076,62.73811689364629 141.29324522131355,62.85464784670876 141.15548818701063,62.81136499097556 141.09681389463367,62.72812849845832 141.17334558036237,62.61825586193481 141.56620823372214,62.59494947687199 141.82386490897625,62.651550656328254 142.04070468517602,62.60160844646998 143.58154262432072,62.54167764990234 143.68613592814654,62.5117121923995 144.37747215581476,62.5117121923995 144.89023445014027,62.55832510922846 145.07646155204566,62.70482222597093 145.395343575874,62.67485698339806 145.5841217339912,62.52503017838353 146.36474492833077,62.41848607216525 147.3800652922073,62.40849753661314 148.48722367895243,62.35855479309794 148.70916556753218,62.528359673659 148.8469226018351,62.48507619703196 149.03059864755778,62.36188431273695 149.8214260666573,62.28863476792503 151.1964453534165,62.228703146714906 152.66075160684704,62.202066819929314 155.88273557565117,62.07221428016783 156.50264222997066,62.13880541880644 156.7551967928448,62.25866897706692 157.13530416524736,62.58496101882156 157.26540803097305,62.75809367085276 157.28326542431023,62.937883876244086 157.34959288526443,62.93455444090978 157.75010870720143,63.12433147713455 158.0434801691299,62.981166491235854 158.31644318152394,62.99448420234694 158.79859280155506,63.190919535656576 159.2067617920693,63.460599179303244 160.7807634616911,64.82226608361634 163.16344994376414,66.82966057265548 163.6302932266408,67.35894404002647 163.9185625761893,67.60860177932591 163.92621574476652,67.65520425392242 163.8216224409407,67.7883536554109 163.82927560951794,67.9348170971025 163.8522351152351,67.99140499252644 164.02570693619782,68.1312097778864 164.0461153857177,68.19778318328827 164.219587206695,68.28765697160088 164.45683543241466,68.48071798322417 164.69408365814888,68.47406073423554 164.77826851244026,68.6837631419312 165.1201100420003,68.62051976219664 165.27062235723133,68.67044876080217 165.90328429252259,69.17638976692433 166.5257420030248,69.69563331322388 168.05127360502956,71.03030113834575 168.50281055078085,71.49292333806261 168.80638623748382,71.86900495908594 169.1380235422548,72.47471627498453 169.13037037369213,72.51798075213446 169.00791967654368,72.58786934921227 169.00791967654368,72.64111766008318 169.16353410418378,72.5645731740351 169.2017999470263,72.6078374803783 169.35231226227188,72.88738947738602 169.50027352133475,73.30671103509303 169.65078583658033,74.07211935517262 169.6354794994404,74.28509796256003 169.69670484801463,74.56130162610134 169.7196643537318,75.12035420619941 169.71201118515455,82.97891433391487 169.64568372420035,83.5011695935209 169.64823478039762,83.86374741211148 169.59721365658334,83.96021209816172 169.63803055562312,83.99680204461038 169.6865006232547,84.80176599547485 169.6865006232547,86.28189405572084 169.6227242184832,86.53467035655376 169.6890516794374,86.59786399349287 169.67629639849474,86.74420647967781 169.72986857849173,86.91050361828457 169.66354111753753,87.44264630417274 169.6890516794374,87.78520658171328 169.64568372420035,88.14439046692314 169.4773140156176,88.44038033845936 169.22986156510888,88.69645836062773 169.00281756414915,88.79290258386754 168.96710277748934,88.9425566047612 168.99771545176918,89.05230226200001 169.22731050894072,89.19530338582626 169.51557985847467,89.55113949620136 169.60486682514602,89.72074166790662 169.609968937526,89.95352690685104 169.70435801657732,90.17633340799148 169.70180696040916,90.64521758443152 169.7528280842089,90.97442836831942 169.69670484801463,91.75254404161387 169.7222154099145,93.54144427259416 169.62782633087772,94.40259338432588 169.65333689276304,96.80964843250331 169.61762210610323,96.85286671120048 169.4033333860716,96.87281358142718 169.35996543084912,97.1088502203911 169.58190731942886,97.35485763731776 169.6227242184832,97.49115790101314 169.67374534229748,98.31226663678899 169.68139851086016,98.8374947717075 169.57935626324615,100.0474679712679 169.4262928918033,100.39316280539606 169.01812390130362,100.90837134078538 169.0104707327264,101.4501587261002 169.26302529560053,101.86230737920414 169.30129113847215,102.32430386844862 169.53853936419182,102.34756963113068 169.7145622413518,101.99525696846285 169.90589145563717,101.80247981112188 170.6074319080799,101.39697771208739 172.28347582533024,101.40030152909094 172.3421501177072,102.32098018612669 172.25031209485314,102.68658233722999 172.31408849961008,102.74973120602226 172.34725223010173,103.11865004962601 172.3319458929618,103.83985253240644 172.37786490438157,104.60091244604882 172.53603038820438,104.68731938970814 173.79115003399784,104.68067271336258 174.91361475789745,104.71722940931795 174.95953376933176,104.90998192806728 174.95953376933176,105.90362855028434 175.02331017410324,106.0 174.9238189826574,105.96012220813282 174.97994221885165,105.76737856448926 174.99524855600612,104.69064272715332 174.9238189826574,104.59758909551783 174.5488137226348,104.63414592465779 173.49777857209847,104.56103220777732 169.67629639849474,104.55438549462451 169.26302529560053,104.62749923280717 169.22986156510888,104.6075591456356 169.4441502851405,102.77632015108793 169.53598830799456,102.3575406650125 169.64058161182038,102.10826350985735 169.77068547754607,101.93542974921365 170.04875060232007,101.70609062127733 170.02579109660292,101.62299616504424 170.1227312318515,100.8485412696391 169.95181046707148,100.55936037916763 169.8446661070775,100.31338753966156 169.78599181468599,99.9410992754656 169.9314020175516,97.70059330335243 170.1558949623286,97.34156000698385 170.11507806328882,97.30499148355375 169.9314020175516,97.30499148355375 169.86762561279465,97.23517868502859 169.9135446242144,94.20975200912653 169.8650745565974,93.81408959646797 169.4900692965748,93.85398863857517 167.83188277266163,93.85398863857517 167.20432294975035,93.81408959646797 167.07677014022192,93.84401388459082 166.04359238299367,93.84068896563258 163.96958370000357,93.80078990023867 163.589476327601,93.82738928493018 163.1557967751869,93.81741451930611 162.65068764943862,93.77086555536334 162.612421806567,93.73429130270415 162.64558553705865,91.55635498809352 162.612421806567,91.18392366346416 162.69915771705564,90.19628612270208 162.6761982113385,89.67085880727973 162.75528095326445,89.50458181644171 162.70425982945017,89.36490820635117 162.73487250373,87.47257896099836 162.63027919991873,85.66657159892566 162.66599398657854,85.42709025750082 162.62772814372147,83.72071281526041 162.69405560469022,80.02811344820839 162.70425982945017,75.7359616994836 162.6761982113385,74.461469363383 162.62517708753876,74.22519793064748 162.45935843512416,73.88243360519664 162.14557852369035,73.52635257756447 161.24250463220233,72.77423789222303 161.1685240026709,72.75759790578559 160.91086732741678,72.54460500490859 160.26289905500016,71.93889554901216 159.70421774924034,71.44632872224065 158.62512098059233,70.50110306182796 158.50267028344388,70.45450641529169 157.11999782810744,69.26625969012457 156.80876897285634,68.98000610693452 156.7245841185504,68.83354939278979 156.6250929271191,68.80359222149491 156.33172146519064,68.60387673830519 156.0587584527966,68.49403247537339 155.63783418135426,68.42080267216443 155.2908905393997,68.42080267216443 154.90823211081442,68.49070385306914 154.31893813077477,68.49070385306914 154.18883426504908,68.43411719936012 153.71178675739793,68.5040183393703 152.7832023039955,68.55394759361843 151.885230524902,68.56393343132186 150.45919011432852,68.63383417252953 149.7423433247459,68.607205344053 149.66070952665177,68.64381997518103 149.41070601996034,68.6804345473738 148.09946313795808,68.73036341453371 147.38516740458726,68.71039188081704 145.53310061017692,68.80026364447622 145.41064991302846,68.83354939278979 145.16574851873156,68.81024937408074 143.62491057955776,68.86683509241448 142.96418702618394,68.81690652472025 142.79836837379844,68.86017795637781 142.51775219282717,68.86683509241448 142.30091241661285,68.76697784746466 142.1580532699445,68.75033493070623 142.06111313469592,68.67044876080217 141.98713250517903,68.42080267216443 142.17335960708442,66.1805225283606 142.0330515165988,65.3515962533329 141.5585550651449,63.174272539301455 141.57641245848208,63.01446075440799 141.40038958133664,62.55166612695939 141.3468174013251,62.23536222353687 141.39018535656214,62.08553252349702 141.29069416513084,61.879098875615455 141.10191600701364,61.14990696015593 140.91058679271373,60.67042556310298 139.74220305740891,58.709108215200104 139.3518914602173,57.979814649654145 139.21158336974622,57.82329654367277 138.93606930115493,57.330423980634805 137.5202331153414,54.789296572045714 137.28808700198715,54.17978341591515 136.77277365147893,53.48698359186892 135.65030892759387,51.59166849189933 135.61204308475135,51.321848044159196 135.76510645616509,50.9720760298751 135.81867863617663,50.73889169672111 135.82122969235934,50.652279763675324 135.72939166950528,50.43574848706339 135.58398146663967,50.29583487275886 134.70896919324878,49.89274559742262 134.57631427132583,49.76948546612766 133.26507138933812,47.57401059170297 133.1273143550352,47.207522200751555 132.83394289312128,46.701092151768535 132.32373165499303,46.02139197796532 132.152810890213,45.661542478042975 131.00228454821627,43.69226511596389 130.88748701964505,43.31238486917209 129.62981631765433,41.186271137934455 129.310934293826,40.81967969197649 128.89256107856636,40.01982327301266 128.52265793092374,39.48323713967693 128.24969491851516,38.84331660607131 126.11956299933081,35.24676109143002 125.83129364976776,34.74673144269764 125.8619063240767,34.620055516876164 127.85938332135265,34.650057773709705 127.87468965850712,34.49337888435184 127.76499424230133,34.13001304363752 127.68336044419266,34.103343762033546 127.62723720801296,34.0 127.57111397180415,34.01000102978469" stroke="#4dd2ff" stroke-linecap="round" stroke-linejoin="round" stroke-width="0.5"><title>2023-04-08 72.8km</title></polyline><polyline fill="none" points="85.93466989282751,121.20941800518631 86.0,121.46959554794739 85.91911510541104,121.52650905954397 83.44901486345043,121.50211756889075 83.33702039404307,121.33950708215889 83.61389561009128,121.36389871604115 83.6232284825237,121.67285755221565 83.29035603177908,121.7013141137395 81.68510197025898,121.6525314189239 81.14379536811612,121.41674718242575 81.11890770825266,121.29072374991483 81.20290356030455,121.22161388212226 81.30245419978746,121.26226676642 81.37400622190034,121.43707348879434 81.29623228481796,121.9614870346104 80.35672312477254,121.96961739898688 79.91807811959006,122.04279057106214 79.33321811266069,122.31109054762237 78.90390597993974,122.68914519323516 78.6612512962165,123.05499961341047 78.51503629449871,123.47369374091068 78.47459384720423,123.90051133556335 78.55236778430117,124.36797067713269 79.5976494987699,126.87179248346183 79.72519875559374,126.94495270402149 80.31939163497009,126.87585694523295 80.4127203594544,127.00591940684717 80.41894227443845,127.19288312542449 78.7701348081464,127.70499467441732 78.27860352573043,127.78221702297378 78.0483926719462,127.64402951032207 78.0608365018852,127.9813684019773 77.23643276873918,128.50565804282087 75.12098167989461,129.11528468198776 69.67991704112501,130.4239045560971 66.75561700656544,130.95627569659518 65.09436571031983,131.13914891843342 64.95437262357154,131.21636169408885 65.0228136881924,132.16321665302894 65.17213964740222,132.7971443766437 65.13169720013684,132.9800054475636 64.95126166607952,133.33759694293803 65.6232284825237,133.7723894755527 66.35119253369339,134.4103437386857 66.86761147595826,134.93451172673485 67.08537849981803,135.4017849066331 67.20670584167237,137.29111350986204 67.2160387141339,139.36719489473398 67.38403041823767,140.3950210753428 67.39958520565415,141.14656945390016 67.73556861387624,142.4586834521524 67.81334255097318,143.70168152876067 67.67334946421033,146.0453530791765 67.91911510541104,146.61803992141904 68.47908745246241,147.06887017769077 68.75596266849607,147.5481231323265 68.8150708606845,148.05173595498127 68.63774628413375,148.28729365150502 67.78845489109517,148.40507174934282 67.25648116139928,148.16951505339784 66.80539232629235,148.07204273177922 64.79260283440817,148.10453354372294 63.78154165224987,148.22231241785994 63.090909090897185,148.5350332077378 61.295886622872786,149.59906973897705 60.788800553040346,150.0133019269706 59.71240926372411,150.55747990710188 58.657794676779304,150.6955532184711 57.76494987901242,151.13819537609197 56.32457656410406,151.450883284082 54.95264431384567,152.03158004530633 54.55133079846564,152.29552909905033 53.80159004490997,153.24978548888794 53.698928447964136,153.26602786664625 53.62737642585125,153.09548242566962 53.47805046662688,153.02645182997003 53.62115451088175,153.1036036609148 53.45938472173293,153.05081558924212 53.6398202557757,153.15233102252023 53.68959557551716,153.29445200484952 53.624265468359226,153.34723961280542 53.422053231915925,153.3066337694563 52.952298651915044,153.01426994230678 51.763912893176894,153.13608857816325 49.894227445547585,152.9777242472137 50.410646387827,154.9267607855545 50.27687521603366,155.37745598766924 49.247148288966855,156.67671648607939 49.09471137226501,157.131443283728 49.14137573451444,158.3047663930447 49.07604562737106,159.39684608042262 49.334255098496214,162.3765028532507 49.132042862067465,165.59125049191607 49.26892499135283,166.06612482368837 50.92084341512236,168.03047590560163 51.157276183890644,168.6067674080823 51.50881437952921,170.42484809684174 51.527480124423164,171.09848168880126 51.38126512270537,171.55703014435858 50.8026270307455,172.79872510521636 50.63463532664173,172.98943803859402 50.46353266504593,173.07464977686323 50.51330798477284,172.95291864211868 50.44486692013743,173.07870747215748 50.1959903214447,173.15174588612172 47.09125475284236,173.19232269974964 46.991704113374,172.33208155215107 46.649498790167854,171.7152884726238 46.562391980638495,171.6584778944889 44.29139301761461,171.65441999160612 42.574144486687146,171.57731972405963 42.38748703767487,171.62195674715076 41.89595575525891,171.92224030982834 41.16488074661174,171.85731440933523 40.704459039043286,171.93035603671342 39.77117179398192,172.6688772519883 38.69166954717366,172.85959107734743 38.50190114068391,172.97726491176763 38.22191496715823,175.5659630938353 37.3850674040732,177.4769004803038 37.245074317310355,179.1605261478071 37.17974421015242,179.01448073540632 34.34566194261424,179.05099216051713 33.493259592112736,177.90694469452137 33.34082267542544,177.89071673187573 33.40304182509135,177.94345757578776 33.46526097475726,177.89477372343026 33.34082267542544,177.39170225122507 33.11994469408819,177.148277299244 32.80262703076005,176.97382143764844 32.522640857234364,176.57216307805902 32.22398893881473,176.2841014850619 30.964051157963695,175.46858696673735 29.053923263039906,174.55161168712948 28.73971655718924,174.23918398915885 27.666436225365032,172.55931765343303 27.37711717939237,172.42135309948026 26.829588662280003,172.46193098064396 26.53404770133784,172.38889075184488 25.728309713100316,171.6584778944889 25.544763221565518,171.36224942490117 25.50743173174851,170.52629998458724 24.673695126155508,169.44277465672712 24.060836501885206,168.24151361902477 23.765295540957595,167.88031347859578 22.894227445547585,167.45417243729207 20.215693052188726,166.60187072533517 19.129968890410964,165.92812799216335 18.91842378153524,165.92812799216335 18.137573453146615,166.32588170393137 17.922917386778863,166.34617510781027 17.546491531276843,166.04583121502037 16.706533010699786,165.10825031477907 16.196335983389872,164.9256009984838 15.913238852386712,164.69830239265866 15.829243000334827,164.53188616145962 15.935015554787242,164.0001593195957 15.608365018997574,163.09498255821381 15.185274801231571,160.9476065675335 15.054614586930256,159.44962207673234 14.69374351883016,158.2682276677151 14.622191496717278,155.9134083174431 14.298651918405085,153.60711560251002 14.0,152.2143142731511 14.544417559620342,151.69453375541707 14.603525751808775,151.48743099124295 15.060836501885206,150.73210192111037 15.869685447629308,150.10264531313442 16.23366747320688,149.51784701571523 17.07673695126141,149.07111778501712 17.443829934316454,148.72591299541637 17.96647079156537,148.38476521643497 18.39889388177835,147.6171673668323 18.638437608009554,146.71551735475077 18.996197718617623,146.07784626621287 19.002419633601676,145.65949357188583 18.538886968541192,144.43283083292226 18.395782924286323,144.17693077000513 18.11579675077519,143.94133814742236 17.779813342553098,143.38078213387053 17.69581749048666,143.00707182730184 17.53404770133784,142.76740713129948 17.207397165562725,141.94684451350258 17.30383684755361,141.10594573821618 17.25717248530418,140.73220476021925 16.977186311778496,139.94001972108344 17.226062910471228,138.82279720774022 17.384721742128022,138.55465710283352 17.235395782918204,137.486133644059 17.38783269962005,136.86450218147002 17.91980642930139,135.50336498998695 18.178015900455648,135.1458014449363 18.35845143449842,134.73541032553112 18.448669201505254,134.23155549032163 19.095748358100536,133.69112036176375 19.428620808845153,133.1669288504163 19.994815070851473,132.49643688021933 20.389906671261997,131.27325518055295 20.51123401313089,130.60678129229382 20.65122709987918,129.40383661300984 20.965433805729845,128.52191492731436 21.827169028678327,128.47314424519755 22.352920843404718,128.58287815922085 23.298651918405085,128.49752959699254 23.615969581733225,128.39185958415874 24.24749395089748,128.32683168358562 24.711026615957962,127.89601798631156 25.174559281018446,128.19677542445606 25.784306947796722,128.16426126424994 26.20428620808525,128.47314424519755 26.471828551671933,128.86737146738596 27.498444521261263,129.3306828867444 27.868648461793782,129.34693928706292 28.736605599711766,129.07057918432474 30.223643276869552,129.1721824837714 30.796059453845373,129.29817005751647 31.604908399589476,129.29004184424593 32.50397511232586,128.71293260550556 32.82129277563945,128.62352023928906 34.115451088830014,128.84298644117735 34.34566194261424,128.9771038196759 34.6163152436784,129.26159307900707 35.726927065319614,129.23314428455524 35.95402696161182,129.39977252217795 36.1904597303801,129.4607338220958 36.06913238851121,128.67229065665015 36.98997580364812,128.9120772930164 37.11130314551701,128.66822645846696 37.136190805380465,128.050461402996 37.46284134115558,128.2780606579763 37.285516764590284,128.18864688798203 37.14552367782744,128.01388277686237 37.176633252660395,127.83098892165253 37.27929484962078,127.77815269419807 38.06014517800941,127.93666107419631 38.977877635654295,128.06671855464992 39.10853784997016,127.98949699927834 39.08987210507621,127.85131052074576 39.012098167979275,127.79847433206669 39.0152091254713,127.89601798631156 39.07120636018226,127.88788936157471 39.133425509833614,127.3798455819724 40.415139993070625,127.43268256922056 40.49291393016756,127.46113321292978 40.48358105770603,127.530227511661 39.91738679569971,128.67635485421852 39.86138956100331,129.57859195486162 42.72658140335989,130.4360963760646 42.608365019012126,132.89873400948818 42.47770480469626,133.41886709368737 43.059453854119056,133.800833609057 43.8060836501827,134.05276608828535 45.22468026270508,134.27625266056566 45.87175941928581,134.30469627681305 46.24818527478783,134.25593577394466 46.817490494286176,133.99181489209514 48.1863117870671,134.1909216366239 48.82405807120085,133.82927771336472 49.04182509504608,133.800833609057 51.51814725197619,134.42659715859008 51.91946076735621,134.467230666678 55.217075699954876,133.38229555534963 57.83961285860278,132.2444902487241 61.445212582082604,131.8868846442565 62.033183546489454,131.92345815660883 62.415831316960976,132.05349692064738 64.12374697542691,132.8174623330142 64.91081921879959,133.30102529732358 65.20324922224972,132.8743525315749 65.21569305218873,132.48424596692348 65.39301762873947,132.3664001952311 65.20324922224972,131.9397130355046 65.1565848600003,131.24480845192556 66.15831316971162,131.1594680907856 69.63014172138355,130.5376946671804 75.1614241271891,129.2250160521926 77.16488074661174,128.6641622597126 78.18527480123157,128.01388277686237 78.9661251296202,127.78628135114013 79.51676460419549,127.60338599303759 80.50916004147439,127.2619780933328 80.394054614575,126.94901715504056 80.28206014515308,126.85147016568044 79.74075354302477,126.94088825238578 79.60076045626192,126.87585694523295 78.60525406150555,124.49398010596997 78.50570342203719,124.14440415040735 78.49014863460616,123.63222675828729 78.63325267886103,123.13223492864927 78.86657449013728,122.74605619827526 79.29277566538076,122.35580695764475 79.84341513998515,122.07531191878843 80.28828206013713,121.98181294109963 81.30556515726494,121.96555221709787 81.38956100931682,121.46146503673117 81.33978568957536,121.2825931861862 81.19357068784302,121.2053527116841 81.09713100586669,121.30698487021073 81.15312824056309,121.43300822870879 81.40200483925582,121.57935721556896 81.81265122708282,121.68505322503006 83.51745592808584,121.7175749929138 83.61078465259925,121.7013141137395 83.6418942274322,121.6281400392927 83.77877635670302,121.66472710069138 83.6356723124627,121.64033573179404 83.72900103696156,121.60374863818106 84.03076391288778,121.5834224541577 85.9688904251525,121.63627050156174 85.99377808501595,121.41268191937161 85.87867265811656,121.02647920663367 85.70445903904329,120.83947385219108 85.62979605943838,120.84353919940804" stroke="#4dd2ff" stroke-linecap="round" stroke-linejoin="round" stroke-width="0.5"><title>2023-04-05 73.3km</title></polyline><polyline fill="none" points="164.2168395799381,184.7109457801289 162.18399853132723,185.49870963823014 162.0169871999824,185.54304187503658 161.9360910863761,185.4884791100194 159.532693646368,181.38226322380615 158.96903040312463,180.519319882962 158.3479570147174,179.44827049798005 158.30620418187755,179.10716159407457 158.25401314083138,178.9673054948271 158.11309733003145,178.82062624165155 157.721664522207,178.20661000617292 157.61206333602604,177.98146665073546 157.35371768285404,177.75290979895 157.18409679947945,177.4800031477498 156.52648968233552,176.330348654099 156.05937986500794,175.28639940212815 155.871492117265,174.96569968179392 155.5009357258532,174.5017007536935 155.10167426188127,174.0752229695463 153.13668156664062,172.1918033513084 152.5208272823511,171.70727575966703 151.3387002027448,170.58804659172347 150.9655342592887,170.14102229508717 150.20093550802267,168.9773537761721 150.00260955205886,168.52688577751542 149.92432299049688,168.18902903882554 149.87474150150956,167.12082334501247 149.86691284534754,165.41773555156033 149.8251600125077,165.1037257535463 149.71555882632674,164.79312492379904 148.2516001250915,162.35595867743177 147.3643524273648,160.98365994453343 146.9598718592897,160.42037949616315 145.23756750489702,157.12576828177043 145.0522893091984,156.68531327698474 143.94062013499206,154.55120735951823 143.7475132831314,154.01850388337516 143.66922672156943,153.61213851365574 143.69010313798208,153.2262555599882 143.79448522007442,152.9086656551117 143.75534193927888,152.84036618231949 143.51265359844547,152.62522152760357 143.43958614098665,152.5091108842753 143.36912823557213,152.2563974734985 143.40305241224996,152.10613413925603 143.6092070243758,151.76120780111705 143.58311150385998,151.5665441364381 143.08990616600204,151.00986533571268 142.98813363596855,150.84593283368304 142.3200883106183,149.14506469827938 142.39576532013598,148.7351982900782 142.37488890372333,148.632730555335 142.30704055036767,148.54050920666486 141.9782369917957,148.2809212177308 141.6102901524573,147.35867721336217 141.1588376474392,146.37149388398575 140.43077262489533,144.2910978753116 139.76272729955963,142.47700405841897 138.84677452925825,140.04774069569794 138.49187545018503,139.37119161668306 138.18394830802572,138.46226123840643 137.49502656627737,137.07146036635277 136.96528749968274,136.09750830888697 136.76435199168918,135.61906071487647 136.49556813031086,135.15085599864688 136.50339678647288,135.05516335858738 136.64692214933166,134.92871176334847 136.63387438908103,134.86035926216573 136.41467201669002,134.78858891875825 136.35987142359954,134.62795924881902 136.21895561278507,134.5254290896064 136.17981233200408,134.3442913653853 136.24505113330088,134.25201311197452 136.16154546763573,134.12555713034817 136.01802010477695,133.70175366935655 135.4961096943589,131.6817450815488 135.4621855176665,131.316005561559 135.48045238203485,130.97076949818438 135.66573057773348,129.77094868277163 136.00758189657063,129.28895187094895 136.09108756222122,129.1077731689038 136.1537168114737,128.89582647227508 136.22678426894709,128.20869561037762 136.2789753099787,128.04118300406662 136.84785765733977,127.11471383667231 137.27582419390092,125.90443625055195 137.680304761976,125.30269276283252 137.88124026998412,124.89582324245202 139.0764151098556,122.10224856015884 139.76272729955963,120.76859947360754 140.14894100326637,119.67426587628688 140.553421571356,119.07920025453859 140.74913797526096,118.86374168580369 140.89266333811975,118.945821377205 141.71989133863826,119.71872418749444 142.34879338320752,120.75492062313242 142.7115211184573,121.28497016363326 142.69325425407442,121.45937090560255 142.29399279011704,122.35187177083935 142.4009844242537,123.09730587709055 142.47405188169796,123.26827361661162 143.207336008345,123.74697656673561 143.32737540274684,123.79484631704872 143.53353001485812,123.80852337037686 144.13894609095587,123.71620310352228 144.48340696183732,123.74013802288755 144.69999978215492,123.78800778735058 144.74697171909793,123.91452025955368 144.72348575062642,124.59152119404098 144.8617920093966,124.81718377068682 145.27149168157484,125.08729214317282 145.52200867858483,125.32662604124562 145.61595255244174,125.47022519195161 145.6785818017088,125.45654912075406 145.7333823947847,125.38474961434986 145.71772508248978,125.10438750368485 145.9682420794852,124.67358056743979 146.13003430671233,124.09232040267852 146.31009339832235,124.01025896792635 146.49537159400643,124.07522429443088 146.79286052795942,124.00683973516789 146.93638589083275,124.00683973516789 147.40349570814578,124.11283571588865 147.55224017512228,124.29405352600406 147.7375183708209,124.28379595200931 147.86016731726704,124.31456866035842 147.883653285724,124.43423991495183 147.74273747492407,124.61203606466916 147.72708016260003,124.6769997016927 147.9332347747404,124.95736699045483 148.34554399896297,125.04968230556187 148.52038398645527,125.12490191964935 148.70827173421276,125.28901659260919 148.91442634632403,125.36765446094614 149.56681435935025,125.79161053846474 149.89300836586335,125.79844847607637 150.0443623848987,125.85315190415531 150.36533728730865,126.181369757207 150.39665191192762,126.28051798482011 150.37055639139726,126.36599025389296 150.24007878880366,126.51642068075853 150.16440177928598,126.73180799870715 149.92171343843802,127.10103873726257 149.90866567817284,127.67880464624068 149.57986211960088,127.98648474758738 149.44155586084526,128.20185838487123 148.9431314188987,129.466710728635 148.96139828326704,129.48722127820474 149.31107825825165,128.62918109721795 150.69414084586606,128.6223439959158 151.15864111113478,128.4650901087789 151.2082226001221,127.59675592839812 150.9916297798045,127.12155138334492 151.04643037289497,127.01556918286951 150.94987694696465,126.69420083367186 150.98380112364248,126.64291823741405 150.7385032307502,126.43436784187179 150.82983755257737,126.29077467378556 150.8141802402679,126.22239666153655 151.27607095347776,125.73690696489939 151.39350079583528,125.54544343907764 151.49527332586877,125.02916782292777 151.55007391895924,124.61545520800973 151.5552930230624,124.52313816057904 151.49527332586877,124.49236572959126 151.53441660664976,124.4650124232412 151.56312167922442,123.85981224835086 151.5813885435782,123.798265581132 151.67011331334652,123.73329947702405 151.71186614618637,123.65807533912084 151.68577062567056,123.47685254809403 151.71447569824522,123.10414461092478 151.61792227230035,122.87504592705591 151.52397839844343,122.78272193557132 150.42535698448773,122.18431676221189 150.0260955205158,121.9039158700325 149.9373707507475,121.71925976810053 149.98956179179368,121.5414413881008 149.9765140315285,121.44911207482255 149.7599212112109,121.16870227193249 149.76514031531406,120.78569802532911 149.27715408157383,120.43346530860254 149.19364841589413,120.33087224668816 149.2928113938833,120.06412815639123 149.27454452951497,119.91023593597129 149.196257967953,119.88971689589562 148.94835052300186,119.97863260476879 148.67695710957923,119.99915156598036 148.59084189185523,119.96837311734271 148.29596250997565,119.55798988913739 147.69837509003992,119.01422089755033 147.05120618110232,118.14895206138317 146.8006891841069,117.95742573045936 146.4353518968128,117.59830958546809 146.36750354345713,117.31101265499638 146.29965519010148,117.17762358137952 145.45676987727347,116.75008931512093 145.38892152391782,116.64063927241477 145.29758720209065,116.28150268178797 145.2036433282192,116.15152806513834 144.8226487286156,115.7923838793995 144.3268338386988,115.48796205959115 143.81275208444276,114.97146194010747 143.75273238724913,114.87568581568848 143.60137836821377,114.17103499164114 143.54135867102013,114.05473133495252 143.41610017251514,114.0239449749879 142.8419987210509,114.0 142.7715408156364,114.48915671155191 142.69064470201556,115.70003161591194 142.61496769251244,115.98392813915416 142.06957131362287,116.92794452985981 141.0466269091994,118.44307869614386 140.7830621519388,118.77140168486949 140.61344126854965,118.7269415529463 140.54298336313514,118.74062160263748 140.70216603831796,118.80902172974857 140.6760705177876,118.90820155479196 140.18286517995875,119.53063074840975 139.78882282007544,119.85893830166788 139.54874403128633,120.12226495102004 138.71629692666465,121.58247652017963 138.46577992965467,122.12276563796695 137.3541107554629,124.84111755125014 137.26016688157688,125.23431183095272 137.20014718438324,125.98990990865241 136.81915258477966,127.13864524120436 136.24505113330088,128.0651134506279 136.09369711429463,129.04965894520137 135.9501717514213,129.31629947637703 135.66834012979234,129.65130502057218 135.6239777449082,129.76069353594903 135.42043268484122,130.97418770226977 135.4126040286792,131.68516318064758 135.51176700666838,132.16369207368007 136.00497234451177,133.8658075422518 136.0571633855434,134.29302571444714 136.1511072594294,134.33062053624235 136.21634606074076,134.53909980373828 136.15632636353257,134.67238884348444 136.17720277994522,134.78175363636365 136.26592754971352,134.85352400095326 136.39379560027737,134.81251239127778 136.37030963180587,134.60745325329844 136.56341648366651,134.4980876371319 136.66518901368545,134.53568212595928 137.4193495567597,134.4058099966751 138.02476563285745,134.36821529697409 138.94071840314427,134.3818861039308 138.9981285482936,135.92321783002808 139.00334765238222,138.18547460176705 138.95637571545376,138.2298973712459 138.10305219440488,138.2538172887471 138.18655786008458,138.42125601948828 138.00388921643025,138.52376893064684 137.9986701123271,138.56819105123031 138.34052143114968,139.41219515374905 138.63540081304382,140.48167843948977 139.232988232965,142.1319343512696 141.6102901524573,148.30483075935626 141.61811880860478,148.48585934539005 141.41979285264097,148.83766557173476 141.4511074772745,149.0665075315901 141.7120626824908,149.63006391719136 141.86863580561476,149.7120346134525 142.0800095218292,149.74960441901203 142.22875398879114,149.86914430421166 142.50014740222832,150.57270942019022 142.58887217199663,151.1191530262313 142.4923187460663,151.85341633479584 142.52624292275868,151.94903961188538 142.6175772445713,152.0480775901342 142.9411616990401,152.16419054296784 143.06642019753053,152.31103844442623 143.14731631115137,152.97696492665636 143.10556347832608,153.41066060474805 143.33259450685,153.83751850610315 143.53613956691697,154.43852110658008 146.2709501175268,159.80246217659624 146.5475626350526,160.1745801036086 147.10339722216304,161.0382803512457 147.33303780274582,161.52644452355707 147.9019201501069,162.4549522121215 148.08458879374666,162.70072743701348 148.11329386632133,162.79971950015351 148.63520427675394,163.60188098008075 148.93269321067783,163.95004456319475 149.3084687061928,164.49617298892917 149.60595764013124,165.14468379434402 149.7416543468571,165.76928495605898 149.76774986735836,167.50306234320306 149.81994090840453,168.26752144714192 149.90083702202537,168.61902767057836 150.0417528328253,168.97052856872506 150.89246680182987,170.3014060486148 151.15864111113478,170.6255825911212 152.74785831087502,172.18497908926838 153.24889230488043,172.76162215196018 155.1982276878116,174.6449955302851 155.5844413915329,175.06805113779774 155.93673091857636,175.70944331923965 156.1115709060541,176.32693713170374 156.28380134148756,176.6919671848318 156.97794218736817,177.77678897828446 157.19714455973008,178.26460112287532 157.53377677446406,178.80698161285727 157.69295944963233,178.99118342507245 158.75243758279248,180.7307951308685 159.06819338111382,181.34815540012096 159.83540168442414,182.58964790437676 159.93717421445763,182.77723028522996 159.9293455582956,182.91706343789338 161.5394391744485,185.72036997609212 161.66208812090917,185.79880312739442 161.7873466193996,185.7851625983658 164.22727778812987,184.88828023451788 164.58739597133535,186.0 164.53520493028918,185.98294948517105 164.49606164949364,185.88405625230735 164.42038463999052,185.87723601382822" stroke="#4dd2ff" stroke-linecap="round" stroke-linejoin="round" stroke-width="0.5"><title>2023-04-01 67.3km</title></polyline><polyline fill="none" points="38.23575217984035,194.0 38.52429144922644,194.45498294103527 38.8159670150053,195.37312412816027 38.906919610803016,195.5493709899547 39.23309443706239,198.21753054916553 39.1703685089451,198.26261246743525 38.42706626064319,198.26261246743525 38.06011958110321,198.22572726699582 38.009938838586095,198.2462190510305 37.897032167966245,198.20523546790537 37.351316593252704,198.23802233922106 35.30331503992784,198.19703874406878 35.21549874055199,198.05359568718632 35.375449857267085,198.03310376174886 35.49149282430881,198.0413005337341 35.52912838118209,198.09457949292846 35.52285578836745,198.37326777632916 35.48522023149417,198.41015278181476 34.368698710837634,198.38966111812078 34.37497130365227,198.37326777632916 34.61960242333589,198.360972763674 34.80778020773141,198.30359596632115 35.06182021663699,198.7667053222758 35.444448378213565,199.18882485649192 35.81139505773899,199.8527281032657 36.02779950978584,200.13549691398293 36.55469730604091,201.01247182170846 36.84010027901968,201.63945101312493 37.50499511716771,202.75814361696757 37.98171217093477,203.67191420722156 38.42706626064319,204.24556656311324 38.93828257486166,205.05275741991682 39.18604999096715,205.50346297536998 39.320910736423684,205.88450836117772 41.067827834762284,208.83845803317126 41.05841894552577,208.90400677093203 41.14937154132349,208.9777489170392 42.322346397297224,211.02196757244928 42.620294555905275,211.40703410129936 43.25696272638743,212.42292882988477 43.85285904358898,213.6353999849507 44.1947153518704,214.02043049162603 44.6212516631349,214.68807719601864 45.78795392627944,216.7073041810072 45.96672282143845,217.04724082285975 46.01063097114093,217.235637662483 45.98240430347505,217.47317969325923 45.781681333479355,217.9277803631703 45.834998372374685,218.2103662412028 46.04199393519957,218.43970920080392 46.28348875849042,218.4765677151845 47.00170063553378,218.95162866008286 47.30905768334924,219.29153800027598 47.8014562191529,220.08600876661512 48.695300694947946,221.60117390482446 48.946204407460755,222.2973033200724 49.16888145230769,222.65764585392026 49.495056278581615,223.03845734626884 49.51073776060366,223.16129865636503 49.353922940281336,223.53800864092227 49.37901331152534,223.67313163732433 49.5734636887355,223.8655784136081 49.98118222154153,224.0047944045582 50.081543706546654,224.0866858400277 50.58021483516495,224.87692586416233 51.35174375111819,226.2485329697065 51.928822289875825,227.32529975167563 52.26126970896439,227.82886846196016 52.93870973272715,228.98335761150702 53.013980846473714,229.17167401424012 53.76355568757572,230.39979335792123 54.00818680728844,230.9769908152448 54.086594217442325,231.33722148763263 54.06464014259109,231.5910175838526 53.93291569352732,231.91030617493743 53.93605198993464,231.97580081992055 54.0426860677544,232.17637721592655 54.274772001823294,232.2828049234613 54.35945200479182,232.50793912390327 54.321816447903984,232.58161901401763 54.45667719338962,232.9663886194885 55.24075129497214,236.5641375772102 55.24075129497214,236.89974016001725 55.287795741067384,237.2066902160368 55.24388759136491,237.82058022281672 55.01807425012521,240.14914717057218 54.99612017525942,240.24326794503577 54.923985357920174,240.32101965031507 55.00552906448138,240.43969288909284 54.99925647168129,240.55018131403813 54.980438693237375,240.6606693026206 54.89575869026885,240.79161746474165 54.93653054354945,240.89801239515145 54.91144017230545,241.5322814686515 54.77657942683436,242.73939901161793 54.6950357202586,243.8973645239439 54.64171868136327,244.35153579235703 54.613492013697396,244.38017697659052 54.66367275619996,244.98572658075864 54.682490534643875,245.95948832860995 54.65740016338532,246.2581563598069 54.6950357202586,246.953672296504 54.65112757058523,247.29324144433122 54.48490386104095,247.72690207570304 54.45667719338962,247.91918341282508 54.45981348978239,247.7514487029457 54.500585343077546,247.72281096907864 54.52253941791423,247.90691017545214 54.46294978620426,248.2832870062648 54.39708756165055,248.32828824508942 54.15872903478157,248.3201062070384 53.920370507912594,248.377380423075 53.58478679241671,248.3651073866422 52.96693640036392,248.38965345411634 52.825803062092746,248.43056351872292 52.48394675379677,248.45101852859807 51.82846080488525,248.62284002132765 51.26706374814967,248.8601155865963 50.47358075734519,249.3101154436954 49.51701035340375,249.64556517550773 49.19397182355169,249.79283451946685 48.45694216807897,250.02600939597323 48.111949563375674,250.20600270893738 47.40628287194704,250.4514462703155 47.20555990195135,250.7173410329724 47.158515455856104,250.8359701891277 47.11460730616818,251.3595687334364 47.164788048670744,251.5027385051435 47.145970270226826,251.65408861039214 47.18987841991475,251.76044224882025 47.149106566634146,251.94451489887433 47.19615101272939,252.13676726321864 47.29337620132719,254.198284093447 47.274558422883274,254.93859336704736 47.35610212945903,256.3946141605011 47.566233988676686,263.26061315658626 47.6007332491572,263.54274149064804 47.5285984318034,264.26236031413464 47.3749199078884,264.7734420000543 47.52232583897421,264.9574291241115 47.5285984318034,265.3662850729761 47.566233988676686,265.4521440640183 47.556825099440175,265.9550271552198 47.519189542595996,266.0 47.43764583602024,265.9550271552198 47.41882805757632,265.62386125657576 47.44078213242756,265.5666223093558 47.49096287493012,265.5380027918982 48.830161440433585,265.578887807902 49.80868591921171,265.55844530735885 55.695514273887966,265.6115957777438 57.661972120651626,265.5298257815284 58.45859140786342,265.51347175364026 59.22071143460926,265.5380027918982 59.85110701226222,265.5216487687667 60.886084826357546,265.44805554660707 61.63879596386687,265.44805554660707 61.921062640452874,265.4276129505688 62.23469228109752,265.3744621310834 62.42600636185671,265.3049570610947 64.21055901706859,265.2272747199513 64.86918126240198,265.2395403670962 64.86918126240198,264.73664443021335 64.82213681630674,264.4790600877386 64.85036348395806,264.15196544524224 65.0103146006877,264.08245734159937 65.16085682818084,264.05792502855 65.38353387302777,264.05792502855 65.51525832210609,264.11107834634277 65.59052943585266,264.06610246862147 65.63130128914781,262.6759033578837 65.56543906460865,262.18931736605555 65.59993832507462,262.0380242002757 65.57171165740874,262.0053120569646 65.4838953580329,262.06255828268695 65.23612794194196,262.0830033349266 65.06676793600491,262.02575715100284 64.73118422052357,262.09527035912106 64.61514125348185,262.1525164009454 64.43323606191552,262.11980439138097 63.529982696898514,262.16478339469177 63.457847879544715,262.1443384021495 63.417076026278664,260.3410313426248 63.36689528376155,259.69492028508284 63.39198565502011,259.5722392863063 63.37630417298351,258.9383788967825 63.30416935564426,257.6583461073242 63.282215280793025,257.0939680145784 63.29162417000043,256.38643447990216 63.23203453829046,255.62571373881656 63.24144342751242,254.84043193724028 63.288487873622216,254.8199815960361 63.523710104083875,254.82407166547455 64.03179012192413,254.87724251374493 64.03806271472422,254.80362131231777 63.83420344830665,248.83147898718744 63.85615752314334,248.65556780510997 63.95651900816301,248.53283841860684 63.96906419377774,248.37328941152373 63.87183900519449,248.0869171173781 63.83420344830665,247.56734847386178 63.827930855506565,246.0904116935926 63.74638714893081,243.37362634131387 63.771477520189364,243.16903845094384 63.72756937048689,242.70257246697474 63.708751592057524,241.46680919760547 63.633480478296406,240.77934110059505 63.6397530711256,240.5256283684339 63.708751592057524,240.40695549419615 63.73384196331608,240.23099134024415 63.68366122081352,240.0754872131456 63.59898121783044,239.95681242932005 63.595844921437674,239.84632166078154 63.67425233159156,238.97465696265135 63.61779899627436,238.15207522439414 63.65229825674032,238.06613245307562 63.63034418190364,237.81239511134663 63.65857084955496,237.6609701171874 63.60211751423776,236.63371405329963 63.589572328623035,235.00885352316254 63.633480478296406,233.28156828797546 63.67738862798433,232.6348321472633 63.708751592057524,232.56524572188027 63.947110118941055,232.36057876126142 63.89379308003117,232.16819045241755 63.90947456205322,232.1067896496843 63.68679751720629,231.91030617493743 63.66170714596228,230.899213129067 63.74011455611617,228.12773015544917 63.7369782597234,227.33758202325407 63.71816048127948,227.03871188279481 63.646025663925684,226.9650173844948 63.646025663925684,226.8544752728012 63.768341223782045,226.46552733104 63.74638714893081,226.30994663909223 63.78088640939677,225.95783977054452 63.73384196331608,225.56069065463635 63.777750113004004,225.30683981024958 63.762068630967406,224.2873188429985 63.809113077048096,223.79597015812396 63.86870270878717,219.64782407536222 64.04119901114609,218.2390342140934 62.30369080202945,218.2390342140934 61.75797522731591,218.15303020718056 61.65761374231079,218.06702593557202 61.68897670638398,217.5305171222717 61.75170263451582,217.50184842247472 61.81129226622579,217.51413501169918 61.86147300872835,217.62061855872344 61.82697374824784,219.65601450643953 62.05278708951664,220.53237676161189 62.093558942797245,221.13434799627794 62.01201523623604,221.57250938075413 61.911653751230915,221.83048903903182 61.77992930216715,222.1089406011306 61.29693965558545,222.99341539730267 61.19030557778024,223.64856386838437 60.66968037432525,223.6158068095301 60.53795592524693,223.5298193474173 60.44073073664913,223.56257650703992 60.32782406602928,223.5339139944699 60.305869991192594,223.61171217448282 59.888742569150054,223.57486043199606 58.93844475802325,223.54619793201528 58.83494697662536,223.5666711492886 58.68754104551044,223.5421032867689 58.36136621926562,223.56257650703992 57.92542101879371,223.52572469976803 57.611791378149064,223.56257650703992 57.11625654595264,223.55438722073268 57.078620989079354,223.5339139944699 57.05039432142803,223.45202093947046 57.00334987533279,222.6944988057494 56.95630542922299,222.51023356069163 56.821444683751906,222.2440705064564 56.52036022875109,221.9328612593472 55.758240202005254,221.5561296395117 55.341112779977266,221.25719767558076 55.2093883309135,221.10568299340957 55.11529943870846,220.92959733073076 55.036892028554576,220.71255998745983 55.01180165731057,220.49552095864783 55.040028324961895,220.14743597796587 55.14038980995247,219.8484889456122 55.24388759136491,219.68468099628626 55.42265648653847,219.49630066752252 55.761376498412574,219.29153800027598 56.63013060296362,218.99667712357405 56.74303727359802,218.9229614182459 57.000213578910916,218.64038274641462 57.09743876750872,218.32913336598176 57.066075803450076,217.98921231888744 56.890443204698386,217.69843320185282 56.6991291239101,217.53461264840735 56.46077059704112,217.45679754905905 56.27886540546024,217.48546629508928 56.14714095639647,217.57556787680733 55.9025098366983,217.96463955280888 55.642197234978084,218.11617126604688 55.43206537574588,218.14483933558222 55.26270536980883,218.08750316710757 51.627737834875006,218.0260714274791 50.95343410750502,218.04245323791838 50.200722969995695,217.9933077778005 48.24681030886131,217.98102139925868 47.97081622508995,217.94825769674753 47.72618510540633,217.8622527948737 47.63836880601593,217.81310701781513 47.46587250367156,217.6247140716623 47.29651249773451,217.50594395281223 46.27721616567578,217.03904962710294 46.082765788480174,216.80559953862394 45.82245318675996,216.33050210667716 45.61859392034239,216.04380147211668 45.116786495331326,215.13043554991782 44.5334353637445,214.19655969917403 44.357802765007364,213.71732181375955 43.90931237889163,212.99230528399676 43.564319774202886,212.58677935846754 43.206781983870314,211.91088973371188 42.45407084634644,210.68605413773184 41.73272267291031,209.38742396120142 41.61354340946127,208.99413603417634 41.368912289777654,208.53938996500256 41.180734505396686,208.2730937844408 40.08616705957684,206.38026930604974 39.70353889801481,205.94186958189675 39.35227370049688,205.2822084298623 38.69365145517804,204.20868926613002 38.483519595931284,203.67191420722156 38.30161440437951,203.34410756961915 37.24781881185481,201.61486385910575 35.81766765056818,199.18062842145628 35.60753579133598,198.74211563810968 35.394267635711,198.39785778539226 35.40681282132573,198.32408769318317 35.54480986320414,198.28310422439245 36.00270913854183,198.27900587420845 36.23165877618885,198.32408769318317 36.55783360246278,198.3363827221001 37.92212253921025,198.34048106386035 37.94407661406149,198.28310422439245 37.90957735358097,198.10687462292844" stroke="#4dd2ff" stroke-linecap="round" stroke-linejoin="round" stroke-width="0.5"><title>2023-03-18 58.2km</title></polyline></svg>