<?xml version="1.0" encoding="utf-8" ?>
<svg baseProfile="full" height="300mm" version="1.1" viewBox="0,0,200,300" width="200mm" xmlns="http://www.w3.org/2000/svg" xmlns:ev="http://www.w3.org/2001/xml-events" xmlns:xlink="http://www.w3.org/1999/xlink"><defs /><rect fill="#222222" height="300" width="200" x="0" y="0" /><text fill="#FFFFFF" style="font-size:12px; font-family:Arial; font-weight:bold;" x="10" y="20">Over 50km Cycling</text><text fill="#FFFFFF" style="font-size:4px; font-family:Arial" x="10" y="280">ATHLETE</text><text fill="#FFFFFF" style="font-size:9px; font-family:Arial" x="10" y="290">Nadines</text><text fill="#FFFFFF" style="font-size:4px; font-family:Arial" x="120" y="280">STATISTICS</text><text fill="#FFFFFF" style="font-size:3px; font-family:Arial" x="120" y="285">Number: 4</text><text fill="#FFFFFF" style="font-size:3px; font-family:Arial" x="120" y="290">Weekly: 1.3</text><text fill="#FFFFFF" style="font-size:3px; font-family:Arial" x="141" y="285">Total: 271.6 km</text><text fill="#FFFFFF" style="font-size:3px; font-family:Arial" x="141" y="290">Avg: 67.9 km</text><text fill="#FFFFFF" style="font-size:3px; font-family:Arial" x="167" y="285">Min: 58.2 km</text><text fill="#FFFFFF" style="font-size:3px; font-family:Arial" x="167" y="290">Max: 73.3 km</text><polyline fill="none" points="29.4259805707552,35.141308125839714 27.749936653504847,35.11130576550022 27.655228692427045,35.01379785104655 27.66383850706916,34.95754311570454 27.907783255301183,34.972544390571784 27.904913317077444,35.29131939894796 26.848776054146583,35.27256803799173 27.098460678811534,35.250066386675826 27.273526909892098,35.208813307759556 27.491642214197782,35.62509132099876 27.833164861731348,35.99261041507816 28.13163843602524,36.54012905526724 28.309574605329544,36.7576332034987 28.897911939304322,37.75512850767882 29.113157305371715,38.23511236865488 30.17790438294469,40.11746204863812 30.731802458351012,40.87486243557214 31.245521398741403,41.737221682082236 31.391888247671886,42.14589481332223 34.023621590356925,46.64461659470726 35.02809996542055,48.18524677926871 35.441371068314766,49.06235241184186 35.98665932906442,49.79325078478723 36.78450215268822,51.17627821773749 37.31257078415365,52.03828998948302 37.51633639738429,52.49177147289629 37.484767077025026,52.776598705569995 37.32118059879576,53.12513297623991 37.39579899238015,53.45867207700758 37.55077565595275,53.62731378653916 37.708622257749084,53.63480894782515 38.45193625529646,54.121989718396435 38.66144174496003,54.354334201623715 39.04027358927124,54.9276913937465 39.20673000570969,55.268701666238485 39.97013357076503,56.52028281506864 40.15093967827852,57.052373610222276 40.305916341851116,57.34464412535999 40.69048806259525,57.82051333080199 40.710577630088665,57.94790988334171 40.58143041044241,58.318855054913 40.65030892759387,58.47247723748296 40.77084633259801,58.5961236898529 41.12097879477369,58.704782200009504 41.2730855201371,58.839667984240805 41.8212437191105,59.7501284229802 42.67935524522909,61.32743379662679 44.55916477572464,64.47800682973502 44.81171933859878,65.04364533017542 44.89207760858699,65.38826663081454 44.88633773216861,65.64672956031427 44.76293038894073,66.00632581489117 44.86624816466065,66.19735926969952 44.98965550788853,66.23107090779922 45.090103345384705,66.31347694727992 45.21925056504551,66.8303815053514 45.20490087397047,66.96147882754667 45.049924210383324,66.91278561484614 44.983915631470154,66.81914456076447 45.07001377790584,66.69553784467644 45.511984262935584,66.66931816148099 45.801848022587365,66.7329944883677 46.04579277081939,66.67680950227805 47.7792354523699,66.60938735613854 47.89690291915031,66.57567621644739 48.67465617528069,66.57567621644739 49.251513756404165,66.62811574788066 49.46101924605318,66.79292500421616 49.819761522856425,66.75921410632145 50.03213695072918,66.59065895068125 50.91033804437029,66.470796831185 52.05257345372229,66.45955972868978 53.29812663880875,66.4033741422354 53.54781126345915,66.59440463286592 53.702787927060854,66.54571072166073 53.90942347848613,66.40711985182861 54.799104324993095,66.32471411391634 56.34600102258264,66.25729104005404 57.99334555771202,66.22732517242002 61.61807752259483,66.0812410651888 62.31547250872245,66.15615609615634 62.599596391955856,66.29100259920051 63.027217185896006,66.65808114617357 63.17358403484104,66.85285537970958 63.19367360233446,67.05511936077528 63.268291995918844,67.05137374602236 63.7188722955907,67.26487291177546 64.04891519027296,67.1038123026392 64.35599857920897,67.11879472764122 64.89841690174944,67.33978447761365 65.35760701606341,67.64317407671479 67.12835889439157,69.17504934406861 69.80888118673465,71.43336814423856 70.33407987996179,72.02881204502955 70.65838289821113,72.30967700174187 70.6669927128678,72.36210478566318 70.54932524605829,72.51189786233772 70.5579350607004,72.67666923424076 70.5837645046413,72.74033061659065 70.77892030321527,72.8976110001222 70.80187980893243,72.97250608119793 70.99703560752096,73.07361409305122 71.26393986147013,73.29080773112582 71.53084411541931,73.28331832601361 71.62555207649712,73.519233534671 72.01012379724125,73.4480847324703 72.17945015188889,73.50425485590131 72.891194829077,74.07343848779055 73.59145975339925,74.65758747737709 75.30768280566554,76.15908878063783 75.815661869623,76.6795387553193 76.15718451717112,77.10263057897282 76.53027648503485,77.7840558093576 76.52166667039273,77.83272834615127 76.38390963610436,77.9113530178638 76.38390963610436,77.97125736759335 76.55897586719948,77.88514482078972 76.6020249403955,77.93381716542535 76.77135129505768,78.24831316205928 76.93780771151069,78.72004991448011 77.10713406615832,79.5811342745692 77.08991443685954,79.8207352078789 77.158792954011,80.13146432936446 77.18462239793735,80.76039848197433 77.17601258329523,89.60127862565423 77.10139418971085,90.18881579271147 77.10426412793458,90.59671583862473 77.04686536364898,90.70523861043148 77.09278437506873,90.74640230018485 77.14731320114515,91.65198674490784 77.14731320114515,93.31713081268572 77.0755647457845,93.60150415112184 77.15018313936889,93.67259699268106 77.13583344829385,93.83723228963754 77.1961021508032,94.02431657056877 77.12148375723336,94.62297709219456 77.15018313936889,95.00835740442744 77.10139418971085,95.4124392752874 76.9119782675698,95.74542788076724 76.63359426075476,96.03351565570665 76.37816975967144,96.14201540685099 76.33799062467006,96.31037618035589 76.37242988323851,96.43384004474865 76.63072432256013,96.594716309055 76.95502734078036,96.99503193322562 77.05547517829109,97.18583437639427 77.06121505472402,97.44771777020651 77.16740276865312,97.69837508398996 77.16453283045848,98.22586978248546 77.22193159472954,98.59623191436003 77.158792954011,99.47161204681652 77.18749233614653,101.48412480666775 77.08130462223198,102.45291755736616 77.11000400436751,105.16085448656668 77.06982486936613,105.2094750501019 76.82875005932874,105.23191527910603 76.7799611096998,105.4974564979384 77.02964573436475,105.77421484198203 77.0755647457845,105.9275526386391 77.13296351008466,106.85129996638716 77.14157332471223,107.44218161816934 77.02677579615556,108.80340146767594 76.85457950328419,109.19230815606898 76.39538938895566,109.771917758384 76.38677957431355,110.38142856686136 76.67090345754696,110.84509580160375 76.71395253077208,111.36484185200607 76.98085678472125,111.39101583502088 77.17888252151897,110.99466408951957 77.39412788758636,110.77778978751303 78.1833608965826,110.3215999260974 80.06891030349652,110.32533922022594 80.13491888242424,111.36110270939207 80.03160110670433,111.77240512938442 80.10334956206498,111.84344760677413 80.14065875885717,112.25848130582926 80.12343912957294,113.06983409895656 80.17509801742563,113.92602650180379 80.35303418672993,114.0232343134212 81.76504378825484,114.01575680253154 83.02781660262553,114.0568830854827 83.07947549049277,114.27372966907569 83.07947549049277,115.39158211906943 83.15122394585342,115.5 83.03929635549139,115.45513748414851 83.10243499620992,115.2383008850502 83.11965462549415,114.02697306804839 83.03929635549139,113.92228773245733 82.61741543795506,113.96341416524047 81.43500089360168,113.88116123375039 77.13583344829385,113.87368368145326 76.67090345754696,113.9559366369067 76.63359426075476,113.9335040388396 76.8746690707776,111.87336016997324 76.97798684649752,111.40223324813996 77.09565431329247,111.1217964485877 77.2420211622375,110.92735846786672 77.55484442762099,110.66935194893631 77.5290149836801,110.57587068567409 77.63807263583294,109.70460892834308 77.4457867754536,109.37928042656313 77.32524937044946,109.10256098211903 77.25924079152173,108.68373668489767 77.422827269751,106.16316746626944 77.67538183261058,105.75925500785524 77.62946282119083,105.71811541899842 77.422827269751,105.71811541899842 77.35107881439035,105.63957602065784 77.40273770224303,102.23597101026644 77.34820887616661,101.79085079602555 76.92632795864483,101.83573721839639 75.06086811923888,101.83573721839639 74.35486331846914,101.79085079602555 74.2113664077333,101.82451562016468 73.04904143087333,101.82077508633483 70.71578166251129,101.77588863776873 70.28816086854204,101.80581294554577 69.80027137209254,101.79459133421915 69.23202360561118,101.74222374978308 69.18897453238606,101.70107771554103 69.2262837291928,99.25089936160475 69.18897453238606,98.83191412139786 69.2865524316876,97.7208218880387 69.26072298776126,97.1297161581897 69.34969107240613,96.94265454349625 69.29229230812052,96.78552173214484 69.32673156670353,94.65665133112452 69.20906409989402,92.62489304879091 69.2492432348954,92.35547653968933 69.20619416168483,90.43580191716865 69.28081255526922,86.28162762923421 69.29229230812052,81.45295691191859 69.26072298776126,80.0191530338052 69.20332422347565,79.75334767197819 69.01677823951468,79.36773780584736 68.66377583915892,78.96714664976025 67.64781771122944,78.12101762874954 67.56458950300294,78.10229764400901 67.2747257433366,77.86268063052194 66.54576143686427,77.1812574926389 65.91724496788811,76.62711981252141 64.70326110316091,75.56374094455532 64.56550406887254,75.51131971720315 63.00999755662633,74.17454215138969 62.659865094465204,73.8525068703002 62.56515713337285,73.68774306688829 62.45322954299627,73.65404124918132 62.12318664834311,73.42936133059447 61.8161032594071,73.3057865347946 61.34256345401809,73.22340300618453 60.95225185682648,73.22340300618453 60.52176112466259,73.30204183470232 59.858805397117976,73.30204183470232 59.71243854818749,73.2383818492799 59.1757601020654,73.31702063179182 58.13110259200039,73.37319104282142 57.120884340503835,73.3844251102364 55.51658887861413,73.4630634440964 54.71013624033367,73.4331060120603 54.618298217479605,73.47429747207934 54.33704427245539,73.5154888657944 52.86189603021194,73.57165884134884 52.058313330155215,73.54919086591872 49.974738186443574,73.65029660003711 49.836981152155204,73.68774306688829 49.56146708356391,73.66153054584174 47.828024401998846,73.72518947896606 47.08471040446602,73.66901984031028 46.898164420519606,73.71770020092481 46.58247121692693,73.72518947896606 46.33852646869491,73.61285007839797 46.17780992867483,73.59412679704474 46.06875227653654,73.50425485590131 45.985524068324594,73.22340300618453 46.19502955797361,70.70308784440385 46.037182956162724,69.77054578499883 45.50337444829347,67.32105660671368 45.523464015786885,67.14126834870876 45.32543827898917,66.62062439282818 45.26516957647982,66.26478250147738 45.313958526123315,66.09622408893301 45.20203093577584,65.8639862350683 44.98965550788853,65.04364533017542 44.774410141806584,64.50422875849108 43.45997843958321,62.29774674210057 43.0208778927481,61.47729148086 42.86303129095177,61.3012086116305 42.55307796379202,60.7467269782137 40.960262254753616,57.88795864355052 40.699097877237364,57.20225634290546 40.11937035791925,56.42285654085208 38.85659754354856,54.29062705338583 38.81354847033799,53.98707904967887 38.985744763180264,53.59358553361017 39.04601346568961,53.331253158812615 39.04888340391335,53.233814734134285 38.945565628193435,52.99021704794541 38.78197914996417,52.83281423185326 37.79759034240851,52.37933879709999 37.64835355523974,52.240671149393165 36.17320531299629,49.77076191566448 36.01822864940914,49.358462475845954 35.68818575475598,48.78872867073915 35.11419811187079,48.02406597521258 34.9219122514769,47.6192352877988 33.62757011674694,45.40379825545824 33.49842289710068,44.97643297781906 32.08354335736658,42.58455503017649 31.724801080548787,42.172139653472186 31.254131213383516,41.27230118213993 30.837990172280115,40.66864178213473 30.530906783329556,39.948731181830226 28.13450837423443,35.902606227858996 27.81020535598509,35.34007287303393 27.84464461458265,35.197562456485684 30.091806236523553,35.23131499542251 30.10902586580778,35.05505124489537 29.98561852259445,34.64626467409107 29.893780499725835,34.61626173228797 29.8306418590073,34.5 29.767503218288766,34.51125115850664" stroke="#4dd2ff" stroke-linecap="round" stroke-linejoin="round" stroke-width="0.5"><title>2023-04-08 72.8km</title></polyline><polyline fill="none" points="185.42650362943823,42.610595255835506 185.5,42.903294991441726 185.40900449358742,42.96732269198583 182.63014172138355,42.93988226500187 182.50414794329845,42.75694546743034 182.8156325613527,42.78438605554584 182.8261320428428,43.13196474624419 182.45165053576056,43.16397837795739 180.6457397165359,43.10909784628893 180.03676978913427,42.84384058022988 180.0087711717788,42.702064218654414 180.1032665053499,42.624315617387765 180.21526097475726,42.67005011222318 180.29575699963607,42.866707674895224 180.2082613204111,43.456672913938746 179.15131351538002,43.465819573861154 178.65783788454428,43.54813939244559 177.99987037674873,43.84997686607676 177.51689422744676,44.27528834239092 177.24390770825266,44.68687456508633 177.07941583132197,45.15790545852542 177.03391807810112,45.638075252509225 177.12141375734063,46.16396701177473 178.29735568612523,48.98076654389479 178.44084860006114,49.06307179202486 179.10931558933225,48.98533906338889 179.21431040439347,49.13165933270284 179.22131005875417,49.341993516103685 177.3664016591647,49.91811900872017 176.81342896645947,50.00499415084596 176.55444175594312,49.84953319911256 176.5684410646354,50.22903945222606 175.64098686484795,50.81886529817348 173.26110438987962,51.50469526723646 167.139906671262,52.97689262560925 163.85006913238612,53.57581015867072 161.9811614241189,53.78154253323919 161.8236692015198,53.86840690584904 161.90066539922555,54.93361873465801 162.06865710332931,55.64678742372598 162.02315935015213,55.85250612850905 161.82016937433218,56.25479656080461 162.5761320428428,56.743938159996105 163.39509160041052,57.461636706022546 163.97606291045668,58.05132569257694 164.2210508122953,58.577008019963614 164.3575440718996,60.70250269859571 164.36804355340428,63.0380942565771 164.55703422053193,64.19439870976021 164.5745333563682,65.03989063563859 164.9525146906235,66.51601888367259 165.04001036984846,67.91439171985621 164.8825181472348,70.55102221407469 165.15900449360197,71.19529491159665 165.78897338402749,71.7024789499028 166.10045800206717,72.24163852386664 166.1669547182828,72.80820294935438 165.96746456965047,73.07320535794497 165.01201175249298,73.20570571801 164.41354130658146,72.94070443507371 163.90606636708253,72.83104807325253 161.64167818872374,72.86760023669012 160.50423435878474,73.0001014700938 159.7272727272648,73.3519123587048 157.70787245074462,74.54895345634941 157.13740062217403,75.01496466784192 155.92646042170236,75.62716489548984 154.740019011384,75.78249737078113 153.73556861390534,76.2804697981046 152.1151486346207,76.63224369459385 150.57172485308547,77.28552755097007 150.12024714828294,77.58247023643162 149.2767888005328,78.65600867499961 149.16129450396693,78.67428134997681 149.08079847908812,78.48241772887923 148.9128067749698,78.40475830871765 149.07379882474197,78.49155411852917 148.8918078119459,78.43216753789784 149.0947977877513,78.5463724003348 149.15079502246226,78.70625850545548 149.07729865191504,78.76564456440792 148.8498098859127,78.71996299063903 148.32133598340442,78.39105368509627 146.98440200481855,78.52809965043343 144.8810058762465,78.3499397781161 145.4619771863072,80.54260588374927 145.31148461803969,81.0496379861288 144.15304182509135,82.51130604683931 143.9815502938145,83.02287369419537 144.03404770133784,84.34286219217574 143.96055133079062,85.57145184047477 144.25103698580642,88.92356570990705 144.02354821983317,92.54015680340672 144.1775406152883,93.07439042664919 146.03594884202175,95.28428539380184 146.30193570688425,95.93261333409464 146.69741617697582,97.97795410894832 146.71841513998515,98.7357918999005 146.55392326305446,99.25165891240431 145.9029554095905,100.64856574336955 145.7139647424774,100.8631177934185 145.52147424817667,100.95898099897204 145.57747148287308,100.82203347238465 145.50047528516734,100.96354590617739 145.22048911164165,101.04571412188852 141.72766159694584,101.09136303721971 141.61566712753847,100.12359174616904 141.23068613895157,99.42969953170177 141.13269097822194,99.3657876312991 138.5778171448328,99.36122249055734 136.6459125475376,99.27448468956754 136.43592291738605,99.32470134054529 135.88295022466627,99.66252034855825 135.06049083994003,99.58947871050259 134.54251641892188,99.67165054130237 133.49256826823694,100.50248690848639 132.27812824057764,100.71703996201722 132.06463878326758,100.84942302574018 131.74965433805482,103.76170848056427 130.80820082958962,105.91151304034247 130.65070860697597,107.80559191628345 130.57721223642875,107.64129082733234 127.38886968544102,107.6823661805829 126.42991704113956,106.39531278133836 126.25842550984817,106.3770563233611 126.32842205323686,106.43638977276169 126.39841859661101,106.38162043885859 126.25842550984817,105.81566503262911 126.00993778085103,105.54181196164973 125.65295540960506,105.34554911735358 125.3379709643923,104.89368346281663 125.0019875561702,104.56961417069579 123.58455755270552,103.65216033758043 121.43566367091262,102.62056314802066 121.08218112685427,102.26908198780438 119.87474075354112,100.37923236011375 119.5492568268237,100.2240222369146 118.93328724506136,100.26967235322445 118.60080366401235,100.18750209582504 117.69434842723422,99.3657876312991 117.48785862425575,99.03253060301358 117.44586069822253,98.09208748266065 116.5079070169304,96.87312148881938 115.81844106462086,95.52170282140287 115.48595748358639,95.11535266342071 114.50600587624649,94.63594399195426 111.49265468372323,93.67710456600253 110.27121500171779,92.91914399118468 110.03322675422532,92.91914399118468 109.15477013480267,93.3666169169228 108.91328206012258,93.38944699628519 108.48980297269009,93.05156011689905 107.54484963705181,91.99678160412623 106.9708779813227,91.79130112329585 106.65239370895142,91.535590191741 106.55789837538032,91.34837193164276 106.67689249914838,90.75017923454652 106.30941064636863,89.73185537798963 105.83343415139825,87.31605738847611 105.68644141030381,85.6308248363257 105.28046145869303,84.30175612618041 105.19996543381421,81.65258435712349 104.83598340822209,79.05800505282423 104.5,77.49110355729499 105.1124697545747,76.90635047484648 105.17896647079033,76.67335986514809 105.69344106463541,75.82361466124894 106.60339612858661,75.11547597727622 107.01287590735592,74.45757789267918 107.96132907016727,73.95500750814608 108.37430867610965,73.56665211984364 108.9622796405165,73.18286086849002 109.4487556170061,72.31931328768769 109.71824230902712,71.30495702409462 110.12072243346483,70.5875770494913 110.12772208779643,70.11693026837202 109.6062478396052,68.73693468703823 109.44525578983303,68.44904711625713 109.13027134463482,68.18400541585106 108.75229001037951,67.55337990060434 108.65779467679386,67.13295580571503 108.47580366401235,66.86333302271305 108.1083218112617,65.94020007769177 108.21681645351055,64.99418895549388 108.16431904597266,64.57373035524688 107.8493346007599,63.68252218622001 108.12932077427104,62.425646858708205 108.30781195989402,62.12398924068839 108.13982025579026,60.921900349567295 108.3113117870671,60.2225649541524 108.90978223297861,58.69128561373509 109.20026788800897,58.28902662555447 109.40325786381436,57.827336616222965 109.5047528517025,57.260499926611374 110.2327169028722,56.65251040698422 110.60719840995444,56.06279495672061 111.2441669547261,55.308491490246524 111.68864500516793,53.93241207812207 111.82513826477225,53.18262895383123 111.98263048737135,51.8293161896363 112.33611303145881,50.837154293229105 113.30556515726494,50.78228727584792 113.89703594884486,50.90573792912437 114.96098340822209,50.8097207966166 115.31796577945352,50.69084203217972 116.0284306947724,50.61768564403428 116.54990494296362,50.133020234599826 117.07137919115485,50.47137235251466 117.75734531627677,50.43479392228073 118.22982198410318,50.78228727584792 118.5308071206382,51.2257929008083 119.68575008641346,51.74701824758813 120.10222951952892,51.76530669794738 121.0786812996812,51.4544015823667 122.75159868648916,51.568705294244864 123.39556688559242,51.71044131470626 124.30552194954362,51.70129707477645 125.31697200136841,51.05204918119489 125.67395437259984,50.95146026919974 127.12988247493922,51.19835974632588 127.38886968544102,51.34924179713562 127.69335464914911,51.66929221388273 128.94279294849548,51.637287320125324 129.1982803318242,51.82474408744929 129.4642671966867,51.893325549857764 129.32777393708238,51.006326988732326 130.36372277910414,51.27608695464369 130.50021603870846,51.00175476577715 130.52821465606394,50.30676907837005 130.89569650881458,50.56281824022335 130.6962063601677,50.462227748981604 130.53871413755405,50.26561812397085 130.57371240925568,50.05986253686024 130.6892067058361,50.00042178097283 131.56766332525876,50.1787437084713 132.600112340122,50.325058373982756 132.74710508123098,50.2381841241895 132.7261061182071,50.082724335839885 132.63861043898214,50.02328362357548 132.6421102661552,50.133020234599826 132.70510715521232,50.12387553177177 132.7751036985719,49.55232627971964 134.217032492219,49.61176789037199 134.30452817144396,49.643774864545776 134.29402868992474,49.72150595061976 133.65706014516763,51.010899210996286 133.59406325612508,52.02591594921978 136.81740407879988,52.990608423071535 136.68441064638318,55.76107576067443 136.53741790528875,56.34622548039806 137.19188558589667,56.775937810189134 138.03184410645918,57.05936184932216 139.62776529554685,57.31078424313637 140.355729346702,57.3427833114165 140.7792084341345,57.28792774568865 141.41967680607922,56.99079175360748 142.95960076045594,57.21478684120302 143.67706533010642,56.80793742753485 143.92205323193048,56.775937810189134 146.7079156584805,57.47992180341316 147.15939336328302,57.52563450001253 150.86921016246197,56.305082499768105 153.81956446594268,55.025051529815755 157.8758641548484,54.62274522478765 158.53733148980245,54.66389042618539 158.9678102315811,54.810184035728525 160.88921534737165,55.66964512464074 161.774671621155,56.21365345949016 162.1036553750455,55.73364659802246 162.11765468370868,55.294776712789826 162.317144832341,55.16220021963454 162.1036553750455,54.682177164942914 162.05115796749305,53.90040950841649 163.1781023159274,53.80440160213402 167.0839094365656,53.10490650057727 173.30660214310046,51.62814305871689 175.56049083995458,50.99718254217805 176.70843415139825,50.26561812397085 177.5868907708209,50.00956652003333 178.2063601797272,49.80380924216843 179.32280504665687,49.41972535500099 179.19331144141324,49.06764429942086 179.06731766329904,48.95790393639072 178.45834773591196,49.058499283934 178.3008555132983,48.98533906338889 177.18091081919556,46.30572761921576 177.0689163497882,45.91245466920918 177.05141721393738,45.3362551030732 177.2124092637241,44.77376429473043 177.47489630141354,44.339313223059435 177.95437262357154,43.900282827351475 178.5738420324924,43.584725908638575 179.07431731765973,43.47953955873891 180.21876080193033,43.461246244234644 180.31325613548688,42.89414816632234 180.25725890077592,42.69291733445971 180.09276702383067,42.60602180064416 179.98427238159638,42.7203579789857 180.04726927063894,42.86213425729693 180.32725544416462,43.02677686751667 180.78923263047182,43.145684878159955 182.70713791910384,43.18227186702825 182.8121327341796,43.16397837795739 182.8471310058667,43.08165754420588 183.00112340130727,43.12281798827826 182.84013135152054,43.09537769826966 182.9451261665963,43.05421721795392 183.28460940200603,43.031350260927866 185.46500172829838,43.090804314257184 185.4930003456393,42.83926715929374 185.36350674039568,42.40478910746424 185.16751641893643,42.19440808371655 185.08352056688454,42.19898159933473" stroke="#4dd2ff" stroke-linecap="round" stroke-linejoin="round" stroke-width="0.5"><title>2023-04-05 73.3km</title></polyline><polyline fill="none" points="70.99394452742126,264.0498140026448 68.70699834774132,264.9360483430082 68.51911059996928,264.9859221094157 68.42810247215675,264.9245389987718 65.7242803521658,260.30504612678124 65.09015920350794,259.3342348683309 64.39145164155343,258.12930431022687 64.34447970461042,257.7455567933339 64.28576478343166,257.5882186816798 64.1272344962781,257.42320452185777 63.68687258748105,256.7324362569434 63.5635712530202,256.4791499820749 63.27293239321443,256.2220235238183 63.08210889939801,255.91500354121672 62.34230089261837,254.62164223585933 61.81680234812666,253.4471993273928 61.60542863191222,253.08641214201816 61.188552691586665,252.5644133479036 60.73938354461279,252.08462584073823 58.52876676246524,249.96577877022173 57.83593069262861,249.42068522962472 56.50603772807517,248.16155241568777 56.08622604169068,247.65865008197034 55.22605244650913,246.3495229981927 55.00293574605894,245.84274649970394 54.914863364290795,245.4626576686769 54.85908418918552,244.26092626313766 54.85027695100871,242.3449524955049 54.8033050140657,241.99169147273824 54.68000367960485,241.64226553927256 53.033050140715204,238.90045351210938 52.034896480778116,237.3566174375992 51.57985584168637,236.72292693318195 49.64226344299095,233.01648931698946 49.43382547283545,232.5209774366067 48.18319765185879,230.12010827945596 47.965952443511924,229.52081686879683 47.87788006175833,229.06365582786202 47.90136603022984,228.6295375049849 48.01879587257281,228.2722488620002 47.97475968168874,228.19541195510828 47.70173529825115,227.9533742185522 47.619534408615436,227.8227497448097 47.540269265009556,227.53844715768537 47.57843396377575,227.36940090666212 47.81035790241731,226.98135877625464 47.78100044182793,226.7623621534931 47.226144436746836,226.13609850267494 47.1116503404628,225.9516744378925 46.36009934944741,224.038197785565 46.445235985156614,223.57709807633728 46.42175001668511,223.46182187475097 46.34542061915272,223.35807285749615 45.975516615770175,223.06603636994623 45.56157642151811,222.02851186503176 45.05369235336548,220.91793061948374 44.23461920299451,218.57748510972306 43.48306821199367,216.53662956572043 42.45262134540826,213.8037082826595 42.05335988145089,213.042590568768 41.706941846510745,212.0200438932061 40.93190488705295,210.45539291214664 40.335948437146726,209.35969684749762 40.1098959906376,208.8214433042358 39.80751414659608,208.29471299847683 39.81632138477289,208.18705877840875 39.977787417999934,208.04480073376544 39.963108687705244,207.96790416993463 39.716506018768996,207.88716253360144 39.65485535154585,207.70645415492072 39.49632506437774,207.59110772580607 39.45228887350822,207.38732778605663 39.525682524967124,207.28351475097043 39.431738651081105,207.1412517716417 39.27027261786861,206.66447287802475 38.6831234061392,204.39196321674171 38.64495870737301,203.98050625675205 38.665508929785574,203.59211568545652 38.87394689995563,202.2423172681174 39.25852963363286,201.70007085481666 39.35247350750433,201.49624481501633 39.42293141290429,201.25780478130946 39.50513230256911,200.48478256167255 39.56384722371877,200.29633087957336 40.203839864509064,199.25405306625544 40.685302218131255,197.89249078187095 41.14034285720845,197.21552935818545 41.36639530371758,196.75780114775625 42.71096699858026,193.61502963017665 43.48306821199367,192.1146744078087 43.91755862867285,190.88354911082206 44.3725992677646,190.21410028635546 44.592780222170404,189.97170939652824 44.754246255382895,190.06404904935516 45.68487775596441,190.9335647109292 46.39239255609573,192.0992857010242 46.80046125825902,192.69559143408696 46.7799110358319,192.8917922688015 46.33074188887258,193.895855742192 46.45110747727449,194.73446911172505 46.533308366910205,194.92680781868694 47.3582530093845,195.46534863757734 47.4932973280811,195.5192021066796 47.725221266708104,195.53458879167374 48.406314352323534,195.43072849146301 48.79383283205971,195.45765527574804 49.037499754922464,195.51150876076827 49.09034318398335,195.6538352919979 49.063921469438355,196.41546134329656 49.219516010562074,196.6693317420213 49.6804281417717,196.9732036610676 49.96225976340065,197.24245429640177 50.06794662149332,197.40400334094556 50.138404526907834,197.3886177608474 50.20005519413098,197.30784331614268 50.182440717791906,196.99243594164363 50.46427233942086,196.50777813836976 50.64628859504592,195.8538604530131 50.84885507309809,195.7615413389176 51.057293043253594,195.83462733123451 51.39196809394343,195.7576947020625 51.553434127170476,195.7576947020625 52.07893267166219,195.8769401803729 52.24627019700711,196.0808102167539 52.45470816716261,196.0692704460089 52.592688231918146,196.10388974290254 52.61910994643404,196.23851990432013 52.460579659280484,196.43854057275166 52.442965182926855,196.51162466440292 52.67488912156841,196.827037864261 53.138736998822424,196.93089259375483 53.33543198474217,197.01551465960438 53.54680570097116,197.2001436666833 53.77872963961272,197.28861126856464 54.51266615425993,197.765561855771 54.87963441158354,197.77325453558478 55.04990768300195,197.83479589217495 55.41100444820768,198.20404097685787 55.446233400914934,198.31558273292103 55.41687594032555,198.41173903562958 55.27008863740775,198.58097326585266 55.18495200169855,198.82328399854487 54.91192761824641,199.23866857941903 54.89724888793717,199.88865522701963 54.52734488455462,200.23479534103353 54.371750343445456,200.4770906829781 53.81102284626104,201.9000495697128 53.831573068659054,201.92312393798056 54.2249630405131,200.95782873436838 55.78090845159022,200.95013699540323 56.303471250022994,200.77322637237376 56.359250425128266,199.79635041944675 56.11558350228006,199.26174530626304 56.17723416950321,199.14251533072638 56.06861156533705,198.78097593787788 56.106776264103246,198.72328301708876 55.83081613459217,198.48866382210508 55.93356724664045,198.32712150800762 55.91595277028682,198.25019624422748 56.43557982266066,197.70402033551 56.56768839529832,197.48862386896144 56.682182491596905,196.9078138007917 56.74383315882005,196.44238710901118 56.74970465095248,196.33853043065028 56.682182491596905,196.3039114457897 56.726218682466424,196.27313897614476 56.758511889129295,195.59228877939313 56.77906211152731,195.52304877877214 56.87887747751665,195.44996191165046 56.92584941445966,195.36533475650867 56.89649195387028,195.16145911660533 56.9287851605186,194.74216268728924 56.82016255633789,194.48442666793562 56.71447569823067,194.38056217751546 55.4785266075487,193.7073563574868 55.02935746057483,193.39190535378475 54.929542094585486,193.18416723911287 54.98825701576425,192.98412156161248 54.97357828546956,192.88025108417423 54.7299113626068,192.56479005592337 54.735782854724675,192.1339102784932 54.18679834176146,191.73764847217717 54.09285446787544,191.6222312775226 54.20441281811509,191.32214417593968 54.18386259570252,191.14901542796724 54.09579021394893,191.12593150788052 53.816894338364364,191.22596168036398 53.511576748263906,191.24904551172585 53.4146971283335,191.21441975701055 53.08295782371715,190.75273862527865 52.410671976278536,190.14099850974344 51.68260695373465,189.16757106905607 51.40077533212025,188.95210394676542 50.98977088391257,188.5480982836507 50.91344148638018,188.22488923686979 50.83711208884779,188.07482652905128 49.8888661119272,187.59385047951037 49.81253671440936,187.47071918146503 49.70978560234653,187.066690517011 49.60409874423931,186.92046907327858 49.175479819678,186.51643186432375 48.61768806853797,186.17395731703982 48.039346094985376,185.59289468262068 47.97182393564435,185.4851465426491 47.801550664240494,184.69241436559423 47.73402850488492,184.56157275181977 47.59311269407044,184.52693809686207 46.94724856117682,184.5 46.86798341758549,185.05030130049454 46.77697528977296,186.4125355679007 46.69183865407831,186.73191915654752 46.07826772781846,187.79393759609047 44.92745527284569,189.49846353316025 44.63094492092205,189.86782689547726 44.440121427120175,189.81780924706436 44.360856283514295,189.83319930296602 44.53993679310952,189.91014944596645 44.510579332505586,190.02172674914073 43.955723327439046,190.7219595919596 43.51242567258305,191.09130558937613 43.24233703518985,191.38754806989527 42.30583404249046,193.03028608520071 42.02400242086151,193.63811134271236 40.773374599884846,196.69625724515572 40.667687741763075,197.13860080981976 40.6001655824366,197.98864864723328 40.171546657860745,199.280975896354 39.525682524967124,200.32325263195526 39.355409253563266,201.43086631335063 39.19394322033622,201.73083691092324 38.87688264600001,202.10771814814143 38.82697496301262,202.2307802279429 38.59798677044455,203.59596116505236 38.589179532267735,204.39580857822693 38.70073788249283,204.93415358288985 39.25559388757392,206.84903348503212 39.31430880873813,207.32965392875303 39.41999566684535,207.37194810327128 39.493389318318805,207.60648727920488 39.42586715897778,207.7564374489193 39.44935312743473,207.87947284090842 39.54916849342408,207.96021450107037 39.69302005031204,207.91407644018545 39.6665983357816,207.68338490995848 39.883843544113915,207.5603485917709 39.99833764039795,207.60264239170465 40.84676825134375,207.4565362462581 41.52786133695918,207.4142422090954 42.55830820353003,207.42962186692057 42.62289461682667,209.16362005878182 42.628766108929995,211.70865892698748 42.57592267988366,211.75863454265163 41.615933718698216,211.7855444498382 41.709877592584235,211.97391302192227 41.50437536847312,212.08924004697838 41.498503876355244,212.13921493263297 41.88308661003248,213.08871954796814 42.21482591466338,214.29188824442463 42.88711176208744,216.14842614517693 45.56157642151811,223.09293460427398 45.570383659680374,223.2965917635629 45.34726695921563,223.6923737681991 45.38249591192289,223.9498209730391 45.67607051778759,224.58382190683915 45.85221528130933,224.67603894013337 46.09001071205421,224.71830497138762 46.257348237384576,224.8527873422372 46.562665827499586,225.64429809771354 46.66248119348893,226.25904715450815 46.55385858932277,227.0850933766451 46.59202328808897,227.19266956337015 46.6947744001227,227.3040872888996 47.05880691141647,227.43471436083746 47.19972272221639,227.59991824997996 47.29073085002892,228.34908554248614 47.243758913100464,228.83699318034087 47.499168820198975,229.31720831936582 47.728157012781594,229.993336244901 50.80481888221402,236.02776994866872 51.116007964432356,236.44640261655877 51.74132187492796,237.41806539514982 51.99966752808541,237.96725008900103 52.639660168861155,239.0118212386351 52.84516239295772,239.28831836663994 52.87745559960604,239.39968443767248 53.46460481133545,240.30211610258993 53.799279862010735,240.69380013359296 54.222027294454165,241.30819461254396 54.556702345144004,242.0377692686361 54.709361140208784,242.7404455755659 54.73871860078361,244.69094513610253 54.79743352194782,245.5509616280342 54.88844164976035,245.94640612939838 55.04697193692846,246.34184463981546 56.004025152054965,247.8390818046919 56.303471250022994,248.20378041501135 58.09134059974167,249.9581014754258 58.655003842985025,250.60682492095475 60.84800614877895,252.72561997157027 61.28249656545813,253.2015575300211 61.67882228338567,253.9231237341428 61.87551726930542,254.61780427316626 62.06927650918078,255.02846308293374 62.850184960771,256.2488876005682 63.0967876296927,256.79767626323337 63.47549887125206,257.4078543144642 63.65457938083273,257.6150813532058 64.84649228063063,259.57214452222615 65.20171755373303,260.26667482513585 66.06482689497352,261.6633538924234 66.17932099125755,261.874384070883 66.17051375308074,262.0316963676287 67.98186907125637,265.18541622310295 68.11984913601191,265.2736535183176 68.26076494682638,265.2583079231608 71.00568751164246,264.2493152638308 71.41082046773226,265.5 71.35210554656805,265.48081817081584 71.30806935568398,265.3695632838444 71.22293271998933,265.3618905155563" stroke="#4dd2ff" stroke-linecap="round" stroke-linejoin="round" stroke-width="0.5"><title>2023-04-01 67.3km</title></polyline><polyline fill="none" points="131.76522120233858,184.5 132.08982788040885,185.01185580866513 132.41796289190825,186.04476464418076 132.52028456216794,186.24304236369971 132.88723124170792,189.24472186781168 132.81666457257234,189.29543902586374 131.98044954323268,189.29543902586374 131.5676345287502,189.2539431753703 131.511181193433,189.27699643240885 131.38416118898022,189.23088990139513 130.77023116743658,189.26777513162415 128.466229419937,189.22166858707897 128.36743608313554,189.06029514808506 128.5473810894473,189.0372417319686 128.67792942735832,189.04646310045064 128.72026942885714,189.10640192954452 128.71321276192612,189.41992624837076 128.6708727604564,189.46142187954138 127.41478604970325,189.43836875788656 127.42184271661972,189.41992624837076 127.69705272626015,189.40609435913393 127.90875273371057,189.34154546211357 128.1945477437257,189.8625434875612 128.6250044255139,190.33742796355546 129.03781943998183,191.0843191161748 129.28127444852726,191.40243402823035 129.8740344693215,192.38903079942247 130.19511281391897,193.0943823897669 130.94311950683186,194.35291156908897 131.4794261923089,195.3809034831247 131.98044954323268,196.0262623835024 132.55556789673574,196.9343520974071 132.83430623984896,197.44139584729237 132.98602457849483,197.8700719063254 134.95130631413485,201.19326528731835 134.9407213137456,201.2670076172999 135.0430429840053,201.3499675316707 136.36263969697757,203.64971351900567 136.697831375408,204.08291336396178 137.41408306719677,205.22579493362173 138.0844664240576,206.58982498306978 138.4690547708742,207.02298430307928 138.9489081210486,207.7740868455221 140.2614481670753,210.04571720363492 140.46256317413645,210.42814592571813 140.51195984255173,210.64009237029495 140.48020484142762,210.90732715491686 140.25439150017337,211.41875290856842 140.3143731689488,211.73666202135428 140.54724317711953,211.99467285090577 140.81892485331628,212.03613867958484 141.62691321499005,212.57058224259526 141.97268989379518,212.95298025031116 142.52663824656338,213.84675986244292 143.5322132818401,215.55132064292775 143.81447995841154,216.33446623508098 144.06499163385888,216.7398515856621 144.4319383134134,217.168264514552 144.44957998069003,217.30646098841135 144.2731633078365,217.73025972103824 144.30138997548784,217.882273091991 144.52014664984017,218.09877571530888 144.9788299992506,218.25539370512888 145.091736669885,218.34752157003095 145.65274168958422,219.23654159718353 146.52071172001888,220.77959959092004 147.16992507611576,221.990962220636 147.5439284226013,222.5574770197054 148.3060484493326,223.85627731294517 148.39072845230112,224.0681332660206 149.2340001485427,225.4497675276616 149.50921015821223,226.0991146671513 149.597418494639,226.50437417358808 149.57272016043134,226.78989478183576 149.42453015522915,227.14909444680598 149.42805848870194,227.2227759224097 149.54802182623826,227.44842436791805 149.8091185020603,227.56815553889282 149.90438350540353,227.82143151439232 149.86204350390472,227.90432139077166 150.0137618425797,228.3371871969248 150.89584520686185,232.38465477436148 150.89584520686185,232.76220768001986 150.94877020872082,233.10752649304231 150.89937354029098,233.79815275066903 150.64533353139996,236.41779056689302 150.6206351971923,236.52367643816433 150.53948352766747,236.61114710660513 150.63122019756702,236.74465450023126 150.62416353065055,236.86895397829176 150.6029935299157,236.99325296544885 150.50772852657246,237.14056964783595 150.55359686151496,237.26026394454675 150.52537019386364,237.97381665223293 150.3736518552032,239.33182388807109 150.2819151853182,240.63453508943712 150.22193351654278,241.14547776640393 150.19017851543322,241.17769909866365 150.24663185075042,241.85894240335438 150.26780185148527,242.95442436968733 150.2395751838194,243.29042590478457 150.2819151853182,244.07288133356815 150.23251851691748,244.45489662487307 150.04551684368926,244.9427648351666 150.0137618425797,245.15908133942867 150.01729017602338,244.97037979081506 150.06315851098043,244.93816234021506 150.08785684515897,245.14527394738434 150.02081850949617,245.56869788204858 149.94672350687324,245.61932427572538 149.67857016414928,245.6101194829207 149.41041682141076,245.67455297595916 149.03288514149608,245.66074580997338 148.3378034504276,245.68836013588225 148.17902844486525,245.73438395856465 147.7944400980341,245.75739584467374 147.05701840551046,245.95069502399383 146.4254467166902,246.21763003492197 145.5327783520188,246.72387987415823 144.4566366476065,247.10126082244824 144.0932183015102,247.2669388344002 143.26405993910157,247.5292605704708 142.87594325881219,247.73175304755387 142.0820682309568,248.00787705410585 141.8562548897171,248.30700866209554 141.80332988785813,248.4404664627691 141.7539332194574,249.02951482511708 141.8103865547746,249.19058081828553 141.7892165540252,249.36084968669093 141.83861322242592,249.48049752992483 141.79274488748342,249.68757926123362 141.8456698893424,249.9038631711228 141.955048226504,252.22306960512833 141.93387822576915,253.05591753792942 142.02561489565414,254.69394093056508 142.2620132372831,262.4181898011593 142.30082490532368,262.7355841769786 142.21967323578428,263.54515535340215 142.04678489640355,264.1201222500604 142.21261656886782,264.3271077646259 142.21967323578428,264.7870707070997 142.2620132372831,264.88366207202125 142.25142823689384,265.4494055496216 142.20908823542413,265.5 142.11735156553914,265.4494055496216 142.09618156478973,265.0768439136482 142.12087989899737,265.0124500980255 142.17733323431457,264.9802531408859 143.68393162050052,265.02624878388997 144.784771659135,265.00325097077985 151.40745355813124,265.06304524996267 153.6197186357458,264.9710540042197 154.5159153338609,264.9526557228455 155.37330036394997,264.9802531408859 156.08249538882228,264.9618548648632 157.2468454296759,264.87906248993386 158.0936454593757,264.87906248993386 158.4111954705295,264.8560645693906 158.76402881625108,264.79626989746976 158.97925715711608,264.71807669373266 160.9868788942258,264.63068405994636 161.72782892022224,264.6444829129832 161.72782892022224,264.07872498399047 161.67490391834872,263.78894259870685 161.70665891947283,263.42096112589934 161.88660392578458,263.34276450929974 162.05596393172164,263.315165657119 162.30647560716898,263.315165657119 162.45466561238572,263.37496313963675 162.53934561535425,263.32436527719983 162.5852139503113,261.7603912776194 162.51111894770293,261.2129820368136 162.5499306157144,261.0427772253115 162.51817561460484,261.0059760640852 162.41938227780338,261.0703780680233 162.1406439347047,261.09337875179335 161.95011392801825,261.02897679487796 161.57258224810357,261.10717915401074 161.442033910178,261.17158095106424 161.23739056967315,261.1347799403047 160.2212305340363,261.18538131902824 160.1400788644969,261.1623807024207 160.09421052956895,259.1336602604533 160.03775719425175,258.406785320718 160.06598386190308,258.268769197095 160.04834219462646,257.55567625888034 159.96719052511617,256.1156393707406 159.94249219090852,255.480714016403 159.95307719126868,254.68473878989062 159.88603885559132,253.82892795616863 159.89662385596603,252.94548592939645 159.94954885783955,252.92247929554105 160.21417386711983,252.92708062366 160.7857638871792,252.98689782796282 160.79282055408112,252.90407397635863 160.56347887935408,246.18541386058496 160.58817721356172,245.9875137807485 160.70108388419612,245.8494432209336 160.7151972180145,245.669950587966 160.60581888086745,245.34778175705287 160.56347887935408,244.76326703309496 160.55642221245216,243.1017131552926 160.46468554256717,240.04532963397833 160.49291221023304,239.81516825731342 160.44351554181776,239.29039402534727 160.4223455410829,237.90016034730616 160.33766553809983,237.12675873816988 160.34472220503085,236.84133191448927 160.4223455410829,236.7078249309725 160.45057220873423,236.50986525777626 160.39411887343158,236.3349231147895 160.29885387008835,236.2014139829862 160.29532553663012,236.07711186837878 160.38353387307143,235.09648908298368 160.3200238708232,234.17108462744363 160.35883553884923,234.07439900971076 160.33413720465614,233.78894450026564 160.36589220575115,233.61859138183536 160.30238220353203,232.46292830996208 160.28826886971365,230.63496021355786 160.33766553809983,228.69176432397398 160.38706220650056,227.96418616567098 160.4223455410829,227.88590143711554 160.69049888382142,227.6556511064191 160.63051721504598,227.4392142589695 160.6481588823226,227.3701383558946 160.39764720687526,227.14909444680598 160.36942053922394,226.01161477020105 160.4576288756507,222.89369642488055 160.45410054220702,222.00477977616174 160.4329305414576,221.66855086814394 160.35177887193277,221.58564455755732 160.35177887193277,221.46128468190182 160.48938387676026,221.02371824742113 160.46468554256717,220.84868996897967 160.5034972105932,220.45256974186304 160.45057220873423,220.0057769864652 160.49996887713496,219.72019478653056 160.48232720985834,218.57323369837286 160.53525221170275,218.02046642788991 160.60229054739466,213.35380208478455 160.7963488875539,211.768913490856 158.8416521522886,211.768913490856 158.2277221307595,211.67215898307768 158.1148154601251,211.57540417751989 158.1500987946929,210.97183176255749 158.22066546384303,210.9395794752836 158.2877037995204,210.95340188816226 158.3441571348376,211.07319587856546 158.305345466797,213.36301631974675 158.55938547571714,214.3489238568145 158.60525381067418,215.02614149581314 158.51351714077464,215.51907305334862 158.4006104701548,215.80930016891216 158.2524204649526,216.12255817627374 157.7090571125591,217.11759232196528 157.58909377500822,217.85463435193196 157.003390421145,217.81778266072251 156.8552004159137,217.72104676584422 156.7458220787521,217.75789857042037 156.61880207431386,217.72565324377865 156.59410374010622,217.81317619629408 156.12483539030654,217.77171798599556 155.05575035279617,217.7394726735165 154.93931534871808,217.76250504295058 154.7734836762247,217.7348661976157 154.4065369966993,217.75789857042037 153.91609864616476,217.71644028723858 153.5632653004286,217.75789857042037 153.00578861420217,217.7486856233245 152.96344861273246,217.72565324377865 152.9316936116229,217.63352355690586 152.87876860976394,216.7813111564701 152.82584360790497,216.5740127557783 152.67412526924454,216.2745793197646 152.33540525737044,215.92446891676627 151.47802022728138,215.50064584445136 151.00875187749625,215.16434738502903 150.86056187229406,214.99389336758577 150.75471186857612,214.79579699707392 150.66650353214936,214.55162998589185 150.63827686449804,214.30746107848063 150.6700318656076,213.91586547521183 150.78293853622745,213.57955006381417 150.89937354029098,213.3952661208241 151.10048854738125,213.18333825096488 151.48154856072506,212.95298025031116 152.458896928365,212.62126176402126 152.58591693281778,212.53833159552778 152.87524027629115,212.22043058971758 152.98461861346732,211.87027503673016 152.94933527889953,211.48786385874882 152.7517486052966,211.16073735208556 152.53652026441705,210.97643922945826 152.2683669216931,210.8888972426903 152.06372358115914,210.92114958197635 151.91553357595694,211.0225138614096 151.64032356630196,211.4602194969102 151.34747188937035,211.63069267430183 151.1110735477414,211.66294425253182 150.92054354105494,211.59844106299715 146.83120506424166,211.52933035591377 146.07261337095406,211.5477598926591 145.2258133412688,211.49247125002512 143.02766159747262,211.47864907416624 142.7171682532353,211.4417899088403 142.4419582436094,211.34503439423315 142.34316490677884,211.2897453950427 142.1491065666487,211.07780333062146 141.95857655996224,210.94418694691376 140.8118681863998,210.41893083049217 140.59311151204747,210.15629948095193 140.30025983511587,209.6218148700118 140.07091816040338,209.29927665613286 139.50638480727503,208.27173999365732 138.85011478423257,207.2211296615733 138.6525281106442,206.68198704048154 138.14797642627673,205.86634344449703 137.75985974598734,205.41012677827712 137.35762973187957,204.6497509504261 136.5108297021652,203.27181090494923 135.6993130070332,201.81085195635205 135.5652363356494,201.36840303844838 135.2900263260235,200.85681371062856 135.07832631858764,200.55723050749657 133.84693794204213,198.42780296930687 133.41648126028304,197.93460327963294 133.02130791307718,197.19248448359576 132.28035788708075,195.9847754243965 132.04395954543725,195.3809034831247 131.83931620494695,195.01212101582132 130.65379616334394,193.06672184149465 129.0448761068983,190.3282069741399 128.80847776526934,189.8348800928743 128.5685510901967,189.4475900085672 128.58266442400054,189.36459865483266 128.73791109613376,189.31849225244332 129.25304778087593,189.31388160848655 129.51061612323974,189.36459865483266 129.87756280279427,189.37843056236306 131.41238785663154,189.3830411968429 131.43708619083918,189.31849225244332 131.3982745227986,189.1202339507945" stroke="#4dd2ff" stroke-linecap="round" stroke-linejoin="round" stroke-width="0.5"><title>2023-03-18 58.2km</title></polyline></svg>