<?xml version="1.0" encoding="utf-8" ?>
<svg baseProfile="full" height="200mm" version="1.1" viewBox="0,0,200,200" width="200mm" xmlns="http://www.w3.org/2000/svg" xmlns:ev="http://www.w3.org/2001/xml-events" xmlns:xlink="http://www.w3.org/1999/xlink"><defs /><rect fill="#1a1a1a" height="200" width="200" x="0" y="0" /><text alignment-baseline="middle" fill="#e1ed5e" style="dominant-baseline: central; font-size:9.0px; font-family:Arial;" text-anchor="middle" x="100.0" y="100.0">2017</text><line stroke="#e1ed5e" stroke-width="0.3" x1="100.0" x2="100.0" y1="15.0" y2="10.0" /><path d="M 100.0 14.0 a86.0,86.0 0 0,1 42.46469731375804,11.215312516191453" fill="none" id="id13" stroke="none" /><text fill="#e1ed5e" style="font-size:6.75px; font-family:Arial;" text-anchor="middle"><textPath startOffset="22.20632615414155" xlink:href="#id13">January</textPath></text><path d="M 102.16513564639614 79.11191278185805 l 0.5125602255173936 -4.94491082486154 a25.971404333849268,25.971404333849268 0 0,0 0.44427586634907046,0.04991957014120625 l -0.5976027953761893 4.935355301249733" fill="#ff4506" stroke="none" /><path d="M 102.52436894288641 79.15227682838746 l 0.463757742454307 -3.829984147374467 a24.85795928086677,24.85795928086677 0 0,0 0.42434344197821094,0.055091957507102385 l -0.529615912940364 3.8214338667032277" fill="#ff3505" stroke="none" /><path d="M 102.88285421437855 79.19881850522331 l 0.5344512753341084 -3.856323335009892 a24.893182224074295,24.893182224074295 0 0,0 0.4239321018652834,0.062476571904515894 l -0.6007523576280477 3.846552278944407" fill="#ff3605" stroke="none" /><path d="M 103.2404852339499 79.25152402106235 l 0.09267974890818194 -0.5934183941987724 a21.600612126443625,21.600612126443625 0 0,0 0.36687178452499464,0.060536987925374666 l -0.10288073957205175 0.5917351433337731" fill="#ff0701" stroke="none" /><line stroke="#e1ed5e" stroke-width="0.3" x1="143.23703022742887" x2="145.7803849466894" y1="26.81831364943548" y2="22.513508569990506" /><path d="M 143.74570117128098 25.957352633546492 a86.0,86.0 0 0,1 28.547481713284135,27.462654790039103" fill="none" id="id14" stroke="none" /><text fill="#e1ed5e" style="font-size:6.75px; font-family:Arial;" text-anchor="middle"><textPath startOffset="19.985693538727396" xlink:href="#id14">February</textPath></text><path d="M 115.68641384162765 86.03803664274999 l 0.12268609658965536 -0.10919887759706497 a21.164244552922966,21.164244552922966 0 0,0 0.23986963832494632,0.2742124622650875 l -0.12454759849244987 0.1070708591290297" fill="#ff0100" stroke="none" /><path d="M 116.60985879189232 87.15038557335679 l 0.1563638540335698 -0.12096522070229994 a21.19769228479581,21.19769228479581 0 0,0 0.22078311021002509,0.2905246931311139 l -0.15842290446770838 0.11825575169015248" fill="#ff0100" stroke="none" /><path d="M 117.04232023915458 87.72973835380427 l 0.7226423660998696 -0.5202936445413981 a21.890459132039528,21.890459132039528 0 0,0 0.21753631274073792,0.3076896872070459 l -0.7314912986444905 0.507777457002559" fill="#ff0b01" stroke="none" /><path d="M 117.65298651832404 88.62581576622439 l 0.2797989955969442 -0.18028027841303518 a21.332848999880937,21.332848999880937 0 0,0 0.19623417715376482,0.31039534251767925 l -0.2828607689966647 0.17543728818114973" fill="#ff0300" stroke="none" /><line stroke="#e1ed5e" stroke-width="0.3" x1="172.23445277983987" x2="176.4835382374775" y1="55.19839476539836" y2="52.563006222186495" /><path d="M 173.08426987136738 54.67131705675599 a86.0,86.0 0 0,1 12.851231095245387,41.99856678651699" fill="none" id="id15" stroke="none" /><text fill="#e1ed5e" style="font-size:6.75px; font-family:Arial;" text-anchor="middle"><textPath startOffset="22.20632615414155" xlink:href="#id15">March</textPath></text><path d="M 118.03404312379186 89.2402003453031 l 0.3292463594001966 -0.1964409666687971 a21.383395642338375,21.383395642338375 0 0,0 0.18587295245153485,0.3177171273424559 l -0.33257898632205873 0.1907444269724459" fill="#ff0400" stroke="none" /><path d="M 118.21658344932153 89.55222093294921 l 0.26731952385500435 -0.15331608878888428 a21.308164811287057,21.308164811287057 0 0,0 0.1797418368762366,0.31974067166970055 l -0.26991900202367397 0.1486919071843898" fill="#ff0300" stroke="none" /><path d="M 118.3937258080291 89.86733742301442 l 0.14802142247466157 -0.08154145297993255 a21.168995118466484,21.168995118466484 0 0,0 0.17307357188212144,0.32067904337745423 l -0.14940309357524784 0.07898142627001958" fill="#ff0100" stroke="none" /><path d="M 118.56541770881063 90.18545643968196 l 1.950697881617929 -1.031229656797515 a23.20650330396476,23.20650330396476 0 0,0 0.18365247325988265,0.3547581229299105 l -1.968159788037928 0.9974988116072597" fill="#ff1e03" stroke="none" /><path d="M 119.04729006885535 91.15688171328212 l 0.27335548597150167 -0.12691122401300775 a21.301379628527204,21.301379628527204 0 0,0 0.15154175057076785,0.3339021597624377 l -0.2754995535056165 0.12218705540850726" fill="#ff0300" stroke="none" /><path d="M 119.196687751892 91.48605970444005 l 2.294757288936433 -1.017749874526151 a23.510323848077153,23.510323848077153 0 0,0 0.16088818817027917,0.37135212054538974 l -2.311936186949393 0.9780986093941586" fill="#ff2203" stroke="none" /><path d="M 119.47837535516314 92.15188598940014 l 0.28901291638643073 -0.11644740780372306 a21.3115902190737,21.3115902190737 0 0,0 0.13416808043998135,0.34144313030764833 l -0.29097454670811246 0.11145527260029034" fill="#ff0300" stroke="none" /><path d="M 120.08093135843002 93.85539295169968 l 0.09541371213079575 -0.029195845431604615 a21.09978062864627,21.09978062864627 0 0,0 0.10328252480293217,0.3482173291420774 l -0.0959021340454302 0.02754912954299728" fill="#ff0000" stroke="none" /><path d="M 120.6074358757038 95.95851677861258 l 0.2587399869356296 -0.05074349483407705 a21.26366888915347,21.26366888915347 0 0,0 0.06734940681821379,0.359783224280643 l -0.25957511766370267 0.04628219309087124" fill="#ff0200" stroke="none" /><path d="M 120.83666639777658 97.38593545837742 l 1.011709588285662 -0.12692405352515174 a22.019640135730445,22.019640135730445 0 0,0 0.04394454024173659,0.3764899843127336 l -1.0137444815309875 0.10949033088756539" fill="#ff0d01" stroke="none" /><path d="M 120.91429891909075 98.10471618934814 l 0.3092292020947294 -0.028022794489943808 a21.310496338849862,21.310496338849862 0 0,0 0.02996206687939569,0.36561310706106676 l -0.30966575279361985 0.02269577022110827" fill="#ff0300" stroke="none" /><path d="M 120.94382443527127 98.46500227214037 l 0.28056533236742476 -0.020562965901055684 a21.28131786522205,21.28131786522205 0 0,0 0.023631797869721523,0.36557345336327624 l -0.2808777212415618 0.015730448284744215" fill="#ff0300" stroke="none" /><path d="M 120.96714384426684 98.82574320788733 l 0.32617464052412043 -0.018267284752524152 a21.326685766162637,21.326685766162637 0 0,0 0.017372506752242497,0.36670616012869944 l -0.3264407555098594 0.012650018000824916" fill="#ff0300" stroke="none" /><path d="M 120.98425023603335 99.18683210126433 l 0.10893746528356384 -0.0042214731878345395 a21.109019228479582,21.109019228479582 0 0,0 0.010944831004826152,0.363205657420447 l -0.10899399074403505 0.0023456683423884604" fill="#ff0000" stroke="none" /><line stroke="#e1ed5e" stroke-width="0.3" x1="184.98032266829074" x2="189.97916517819016" y1="98.17113171792111" y2="98.06355123074" /><path d="M 185.9800911702706 98.14961562048488 a86.0,86.0 0 0,1 -9.607161424134198,41.387399972396054" fill="none" id="id16" stroke="none" /><text fill="#e1ed5e" style="font-size:6.75px; font-family:Arial;" text-anchor="middle"><textPath startOffset="21.466115282336823" xlink:href="#id16">April</textPath></text><path d="M 120.41448212921028 104.9243191809786 l 0.6566103434689277 0.15838554651094977 a21.675442909870224,21.675442909870224 0 0,0 -0.09061231643475945,0.36195116177250414 l -0.6537867127391074 -0.16966454768084982" fill="#ff0801" stroke="none" /><line stroke="#e1ed5e" stroke-width="0.3" x1="174.80103733775053" x2="179.2010983576182" y1="140.37084112569926" y2="142.7455964860345" /><path d="M 175.68104954172406 140.8457921977663 a86.0,86.0 0 0,1 -30.038265399797805,32.042727171017184" fill="none" id="id17" stroke="none" /><text fill="#e1ed5e" style="font-size:6.75px; font-family:Arial;" text-anchor="middle"><textPath startOffset="22.206326154141568" xlink:href="#id17">May</textPath></text><path d="M 117.55443506779139 111.5257021239791 l 1.5972362246674028 1.0486961771229253 a22.910739969043934,22.910739969043934 0 0,0 -0.2192851231676335,0.32780150613939507 l -1.5789479960890482 -1.0760345974681274" fill="#ff1a02" stroke="none" /><path d="M 116.0416608686014 113.55231037782055 l 2.137278188047458 1.805614618425131 a23.79789245743541,23.79789245743541 0 0,0 -0.2670548387630344,0.31064511020353275 l -2.105880839713645 -1.8421368277901917" fill="#ff2603" stroke="none" /><path d="M 113.20401910651253 116.32954008644616 l 0.7498437311890904 0.9273391054836696 a22.19257009763067,22.19257009763067 0 0,0 -0.29911622302282503,0.2376360179057661 l -0.7337700154489143 -0.9401090373945616" fill="#ff1001" stroke="none" /><path d="M 112.92097659922987 116.55440617244103 l 0.3998268444956649 0.5122597298737588 a21.649824235027978,21.649824235027978 0 0,0 -0.2957482193426119,0.22676712324087994 l -0.39094989665955926 -0.5190661949420102" fill="#ff0801" stroke="none" /><path d="M 112.63410532772338 116.77436683061366 l 0.676535356162269 0.8982394830319752 a22.124515120847718,22.124515120847718 0 0,0 -0.3061769817295277,0.22650241142565744 l -0.660973404014177 -0.9097518431974017" fill="#ff0f01" stroke="none" /><path d="M 112.34349029814194 116.9893568818739 l 0.7720559988689295 1.0626439184345071 a22.313500119061793,22.313500119061793 0 0,0 -0.31267872881335934,0.22308797087317714 l -0.7536499422066856 -1.0757761511519035" fill="#ff1101" stroke="none" /><path d="M 112.04921762599082 117.19931262002967 l 0.5206760455648466 0.7432241959107455 a21.90746115609001,21.90746115609001 0 0,0 -0.3107136419396676,0.21371167616435532 l -0.5078055190022956 -0.752076661440195" fill="#ff0c01" stroke="none" /><path d="M 111.7513745106137 117.40417183066458 l 0.5499843347947218 0.8145448737333453 a21.98283575425646,21.98283575425646 0 0,0 -0.31542783839053407,0.20904837153093023 l -0.5358817976642235 -0.823891266355594" fill="#ff0d01" stroke="none" /><line stroke="#e1ed5e" stroke-width="0.3" x1="143.8653032363475" x2="146.44561519142675" y1="172.8068346515853" y2="177.08958963109032" /><path d="M 144.38136562736335 173.6633856474863 a86.0,86.0 0 0,1 -40.68145358897372,12.25698825130547" fill="none" id="id18" stroke="none" /><text fill="#e1ed5e" style="font-size:6.75px; font-family:Arial;" text-anchor="middle"><textPath startOffset="21.466115282336833" xlink:href="#id18">June</textPath></text><path d="M 110.8373102113329 117.98757091392108 l 0.8251578187951767 1.3695819803361657 a22.598949726157876,22.598949726157876 0 0,0 -0.33492948741879414,0.1978822447765566 l -0.8014604603480004 -1.383582797406472" fill="#ff1502" stroke="none" /><line stroke="#e1ed5e" stroke-width="0.3" x1="102.19456741930631" x2="102.32365962044197" y1="184.97166512339345" y2="189.96999836594603" /><path d="M 102.22038585953345 185.97133177190398 a86.0,86.0 0 0,1 -42.740103519485714,-10.115201625700543" fill="none" id="id19" stroke="none" /><text fill="#e1ed5e" style="font-size:6.75px; font-family:Arial;" text-anchor="middle"><textPath startOffset="22.20632615414155" xlink:href="#id19">July</textPath></text><path d="M 97.65516085044442 120.86867818915974 l -4.154314306473171 36.97270594225716 a58.20536671032266,58.20536671032266 0 0,0 -0.9946814258843986,-0.12044206836877462 l 4.790123155408959 -36.89571834516303" fill="#3eff2d" stroke="none" /><path d="M 93.76903079525671 120.05430185196036 l -8.150586597125532 26.232568083448257 a48.469613942135965,48.469613942135965 0 0,0 -0.7946215948552368,-0.254412741349745 l 8.600929537071709 -26.088382495438807" fill="#a3ff22" stroke="none" /><path d="M 90.7491055286396 118.85261126421891 l -27.752683414081172 56.55783379265673 a84.0,84.0 0 0,0 -1.292584369268958,-0.6481286363627916 l 28.72212169103289 -56.07173731538464" fill="#4dd2ff" stroke="none" /><line stroke="#e1ed5e" stroke-width="0.3" x1="58.666819895761336" x2="56.23545636021788" y1="174.27360380694188" y2="178.64263932499728" /><path d="M 58.180547188652646 175.14741091055294 a86.0,86.0 0 0,1 -31.652253787137756,-30.449443065178592" fill="none" id="id20" stroke="none" /><text fill="#e1ed5e" style="font-size:6.75px; font-family:Arial;" text-anchor="middle"><textPath startOffset="22.20632615414155" xlink:href="#id20">August</textPath></text><line stroke="#e1ed5e" stroke-width="0.3" x1="26.63291911575756" x2="22.317208475507996" y1="142.92168965132927" y2="145.44649492493687" /><path d="M 25.769776987707644 143.4266507060508 a86.0,86.0 0 0,1 -11.730757126820373,-40.83630448921669" fill="none" id="id21" stroke="none" /><text fill="#e1ed5e" style="font-size:6.75px; font-family:Arial;" text-anchor="middle"><textPath startOffset="21.46611528233685" xlink:href="#id21">September</textPath></text><path d="M 80.20201598880116 107.00284435728193 l -0.43259325791346837 0.1530147338973479 a21.45885775092273,21.45885775092273 0 0,0 -0.12017897280921351,-0.34929634951377175 l 0.43516306166591034 -0.14554568129427928" fill="#ff0500" stroke="none" /><path d="M 79.97269907076064 106.31721596034903 l -0.7184993909097185 0.2266364217421443 a21.753395939992856,21.753395939992856 0 0,0 -0.1095679475011945,-0.3580743919929201 l 0.7222941109170433 -0.2142350571971764" fill="#ff0901" stroke="none" /><path d="M 79.76711848015287 105.62410040840567 l -1.0853432924464363 0.3016910689819767 a22.12649348136683,22.12649348136683 0 0,0 -0.09884423415705716,-0.3678361662560712 l 1.0903756029452683 -0.28296396955036657" fill="#ff0f01" stroke="none" /><path d="M 79.35854240842038 103.8639653848113 l -0.32560246608696436 0.06095096010479677 a21.331258185498275,21.331258185498275 0 0,0 -0.06445448672624607,-0.3614949910232137 l 0.3266033951523991 -0.055337218348369396" fill="#ff0300" stroke="none" /><path d="M 79.23777060512086 103.15116336523772 l -0.4402796489996948 0.06682293476295721 a21.445321764495773,21.445321764495773 0 0,0 -0.052250963777848075,-0.36544311896486087 l 0.44136466379414185 -0.05923434381769578" fill="#ff0500" stroke="none" /><line stroke="#e1ed5e" stroke-width="0.3" x1="15.007084014347285" x2="10.007500721073583" y1="101.09737516637583" y2="101.16192664675087" /><path d="M 14.007167355692545 101.11028546245083 a86.0,86.0 0 0,1 10.666146001902534,-42.60595125391555" fill="none" id="id22" stroke="none" /><text fill="#e1ed5e" style="font-size:6.75px; font-family:Arial;" text-anchor="middle"><textPath startOffset="22.20632615414155" xlink:href="#id22">October</textPath></text><path d="M 79.91906864156998 93.8553929516997 l -0.8395127551153639 -0.2568842998437089 a21.87793576616264,21.87793576616264 0 0,0 0.11329074004960318,-0.3591626054437221 l 0.8349665312975569 0.2712970717138455" fill="#ff0b01" stroke="none" /><line stroke="#e1ed5e" stroke-width="0.3" x1="26.266209847984243" x2="21.928928074336255" y1="57.711370442889674" y2="55.22380399835377" /><path d="M 25.398753493254645 57.213857153982495 a86.0,86.0 0 0,1 29.58750427330803,-30.492523968695096" fill="none" id="id23" stroke="none" /><text fill="#e1ed5e" style="font-size:6.75px; font-family:Arial;" text-anchor="middle"><textPath startOffset="21.46611528233685" xlink:href="#id23">November</textPath></text><line stroke="#e1ed5e" stroke-width="0.3" x1="56.762969772571076" x2="54.21961505331055" y1="26.818313649435495" y2="22.513508569990535" /><path d="M 56.25429882871897 25.957352633546506 a86.0,86.0 0 0,1 42.265352541879196,-11.944610805530505" fill="none" id="id24" stroke="none" /><text fill="#e1ed5e" style="font-size:6.75px; font-family:Arial;" text-anchor="middle"><textPath startOffset="22.20632615414155" xlink:href="#id24">December</textPath></text></svg>