<?xml version="1.0" encoding="utf-8" ?>
<svg baseProfile="full" height="200mm" version="1.1" viewBox="0,0,200,200" width="200mm" xmlns="http://www.w3.org/2000/svg" xmlns:ev="http://www.w3.org/2001/xml-events" xmlns:xlink="http://www.w3.org/1999/xlink"><defs /><rect fill="#1a1a1a" height="200" width="200" x="0" y="0" /><text alignment-baseline="middle" fill="#e1ed5e" style="dominant-baseline: central; font-size:9.0px; font-family:Arial;" text-anchor="middle" x="100.0" y="100.0">2016</text><line stroke="#e1ed5e" stroke-width="0.3" x1="100.0" x2="100.0" y1="15.0" y2="10.0" /><path d="M 100.0 14.0 a86.0,86.0 0 0,1 42.35913384403234,11.155469271406648" fill="none" id="id1" stroke="none" /><text fill="#e1ed5e" style="font-size:6.75px; font-family:Arial;" text-anchor="middle"><textPath startOffset="22.145653131862478" xlink:href="#id1">January</textPath></text><line stroke="#e1ed5e" stroke-width="0.3" x1="143.13028292997686" x2="145.6673583964461" y1="26.7553504044142" y2="22.446841604673864" /><path d="M 143.63769802327073 25.89364864446614 a86.0,86.0 0 0,1 29.32050498858742,28.57503671076993" fill="none" id="id2" stroke="none" /><text fill="#e1ed5e" style="font-size:6.75px; font-family:Arial;" text-anchor="middle"><textPath startOffset="20.669276256404974" xlink:href="#id2">February</textPath></text><line stroke="#e1ed5e" stroke-width="0.3" x1="172.87174338648825" x2="177.1583165268699" y1="56.24261187166439" y2="53.66864786411523" /><path d="M 173.72905801456457 55.72781907015455 a86.0,86.0 0 0,1 12.242430191666344,42.057860355516425" fill="none" id="id3" stroke="none" /><text fill="#e1ed5e" style="font-size:6.75px; font-family:Arial;" text-anchor="middle"><textPath startOffset="22.145653131862474" xlink:href="#id3">March</textPath></text><line stroke="#e1ed5e" stroke-width="0.3" x1="184.99686870605535" x2="189.99668451229388" y1="99.2704041080226" y2="99.22748670261217" /><path d="M 185.99683186730306 99.26182062694052 a86.0,86.0 0 0,1 -10.086455211305974,41.156179273409016" fill="none" id="id4" stroke="none" /><text fill="#e1ed5e" style="font-size:6.75px; font-family:Arial;" text-anchor="middle"><textPath startOffset="21.40746469413373" xlink:href="#id4">April</textPath></text><line stroke="#e1ed5e" stroke-width="0.3" x1="174.33088141563837" x2="178.70328620479359" y1="141.23008692659167" y2="143.65538615756765" /><path d="M 175.20536237346943 141.71514677278685 a86.0,86.0 0 0,1 -30.301960400862466,31.631185727798858" fill="none" id="id5" stroke="none" /><text fill="#e1ed5e" style="font-size:6.75px; font-family:Arial;" text-anchor="middle"><textPath startOffset="22.145653131862474" xlink:href="#id5">May</textPath></text><line stroke="#e1ed5e" stroke-width="0.3" x1="143.1302829299769" x2="145.66735839644613" y1="173.24464959558577" y2="177.55315839532614" /><path d="M 143.63769802327073 174.10635135553383 a86.0,86.0 0 0,1 -40.68552437913181,11.842963189579606" fill="none" id="id6" stroke="none" /><text fill="#e1ed5e" style="font-size:6.75px; font-family:Arial;" text-anchor="middle"><textPath startOffset="21.407464694133747" xlink:href="#id6">June</textPath></text><line stroke="#e1ed5e" stroke-width="0.3" x1="101.45913802915013" x2="101.54496967792366" y1="184.9874750549273" y2="189.98673829345242" /><path d="M 101.47630435890484 185.9873277026323 a86.0,86.0 0 0,1 -42.54439059252881,-10.42667462771756" fill="none" id="id7" stroke="none" /><text fill="#e1ed5e" style="font-size:6.75px; font-family:Arial;" text-anchor="middle"><textPath startOffset="22.145653131862474" xlink:href="#id7">July</textPath></text><line stroke="#e1ed5e" stroke-width="0.3" x1="58.13341422392154" x2="55.670673884152215" y1="173.97424548756322" y2="178.32567169271397" /><path d="M 57.64086615596767 174.84453072859336 a86.0,86.0 0 0,1 -31.369924170532244,-30.572349798747897" fill="none" id="id8" stroke="none" /><text fill="#e1ed5e" style="font-size:6.75px; font-family:Arial;" text-anchor="middle"><textPath startOffset="22.145653131862474" xlink:href="#id8">August</textPath></text><path d="M 89.65649057296885 118.27599006163327 l -13.439815039825826 23.74686539716791 a48.28630140740842,48.28630140740842 0 0,0 -0.717873666597897,-0.41446455465444415 l 13.845481174284123 -23.512653945237293" fill="#b5ff20" stroke="none" /><path d="M 86.96720088162412 116.46651593811092 l -18.915927983260254 23.89965707223524 a51.4795987447068,51.4795987447068 0 0,0 -0.6882313185712696,-0.5543904329021925 l 19.323410072186785 -23.571418345539637" fill="#90ff24" stroke="none" /><path d="M 82.18462484594161 111.11811171558189 l -19.102424984808266 11.921325999763738 a43.51711912951721,43.51711912951721 0 0,0 -0.3900626626088416,-0.637138045024408 l 19.304255611872513 -11.591650838614772" fill="#edff19" stroke="none" /><path d="M 81.99639281039703 110.81064883170644 l -26.863594536681617 16.130816665513866 a52.33458086088994,52.33458086088994 0 0,0 -0.4558747956569592,-0.7741750667753209 l 27.136543042468347 -15.667290430444986" fill="#87ff25" stroke="none" /><line stroke="#e1ed5e" stroke-width="0.3" x1="26.387840678322732" x2="22.057713659400548" y1="142.50000000000003" y2="145.00000000000006" /><path d="M 25.521815274538298 143.00000000000003 a86.0,86.0 0 0,1 -11.493303480769221,-40.785679425670985" fill="none" id="id9" stroke="none" /><text fill="#e1ed5e" style="font-size:6.75px; font-family:Arial;" text-anchor="middle"><textPath startOffset="21.40746469413373" xlink:href="#id9">September</textPath></text><path d="M 81.81346652052679 110.50000000000001 l -54.559600438419615 31.50000000000003 a84.0,84.0 0 0,0 -0.7102665399144867,-1.2549729196035138 l 55.09230034335548 -30.558770310297394" fill="#4dd2ff" stroke="none" /><path d="M 80.68587082218212 108.24405325689762 l -32.07385215222539 13.69042025464389 a55.87347987556701,55.87347987556701 0 0,0 -0.36896226831199647,-0.8853751279512144 l 32.304140265073876 -13.137812617251393" fill="#61ff29" stroke="none" /><path d="M 80.5471966667186 107.91128576633889 l -21.644619311216545 8.802678243381308 a44.36614408463636,44.36614408463636 0 0,0 -0.280861618155019,-0.7079547501389544 l 21.792539604337687 -8.429822476028788" fill="#e3ff1b" stroke="none" /><path d="M 80.16572619554312 106.89939002012753 l -29.376067780090178 10.218521276387808 a52.102596922064926,52.102596922064926 0 0,0 -0.28660045325891437,-0.8472833144968034 l 29.54715365492146 -9.712736287416842" fill="#89ff24" stroke="none" /><path d="M 79.94057633289273 106.21446072829308 l -33.23614297131422 10.296642051279427 a55.794569075386114,55.794569075386114 0 0,0 -0.2755818108719395,-0.9173222202662249 l 33.40800110218979 -9.724582227422479" fill="#61ff29" stroke="none" /><path d="M 79.83685265289637 105.86919833188381 l -27.202219216867324 7.918169564639383 a49.33122199229831,49.33122199229831 0 0,0 -0.22969910829575307,-0.8151211016909423 l 27.334136817237653 -7.450040539045445" fill="#a9ff21" stroke="none" /><path d="M 79.64726062577567 105.17358676015961 l -36.911057170084334 9.38264639306916 a59.08490770306012,59.08490770306012 0 0,0 -0.2414391464550519,-0.9851541088473585 l 37.06668384305568 -8.747636459613702" fill="#3fff2d" stroke="none" /><path d="M 79.407916724674 104.11899336999214 l -31.93713001308862 6.388320454109391 a53.56978525715695,53.56978525715695 0 0,0 -0.17263171380954567,-0.903282073870259 l 32.04208801918032 -5.839135815205817" fill="#79ff26" stroke="none" /><path d="M 79.22317932658666 103.0534771498775 l -31.641522490605215 4.650214170449648 a52.981407682504006,52.981407682504006 0 0,0 -0.12452014236930294,-0.9009657205447612 l 31.71668714952973 -4.106360141704801" fill="#80ff26" stroke="none" /><path d="M 79.00696218219943 100.54070618675478 l -22.679074701425602 0.5841325160923826 a43.68659604500418,43.68659604500418 0 0,0 -0.012874166087902596,-0.7498556321540931 l 22.68576029911217 -0.19472996796923708" fill="#ebff1a" stroke="none" /><line stroke="#e1ed5e" stroke-width="0.3" x1="15.003131293944662" x2="10.003315487706104" y1="100.72959589197737" y2="100.7725132973878" /><path d="M 14.003168132696942 100.73817937305945 a86.0,86.0 0 0,1 10.791469493833615,-42.45332614584628" fill="none" id="id10" stroke="none" /><text fill="#e1ed5e" style="font-size:6.75px; font-family:Arial;" text-anchor="middle"><textPath startOffset="22.145653131862435" xlink:href="#id10">October</textPath></text><path d="M 79.17382384314186 97.30363454192245 l -23.699389907612854 -3.068360501856022 a44.89719477600691,44.89719477600691 0 0,0 0.1055201311183246,-0.763491103977664 l 23.64322525993932 3.4747399140337527" fill="#ddff1b" stroke="none" /><path d="M 79.2786578344484 96.59031103205396 l -6.423073694711988 -1.0569143321986578 a27.509450329582986,27.509450329582986 0 0,0 0.08067497710646108,-0.46531182940917976 l 6.4039839001132925 1.1670191945284303" fill="#ff3b05" stroke="none" /><path d="M 79.94057633289273 93.78553927170692 l -30.74773093201932 -9.525725640586746 a53.189476641405484,53.189476641405484 0 0,0 0.27768778043997877,-0.8698530171622398 l 30.579678435802084 10.052147691440378" fill="#7dff26" stroke="none" /><path d="M 80.68587082218212 91.75594674310238 l -35.913862376996626 -15.329492278476229 a60.04867276041167,60.04867276041167 0 0,0 0.4128092274501672,-0.9445882986847941 l 35.64541926752948 15.943742646936888" fill="#36ff2f" stroke="none" /><line stroke="#e1ed5e" stroke-width="0.3" x1="26.387840678322718" x2="22.05771365940052" y1="57.49999999999999" y2="54.99999999999999" /><path d="M 25.521815274538284 56.99999999999999 a86.0,86.0 0 0,1 29.574782752854787,-30.34633250058573" fill="none" id="id11" stroke="none" /><text fill="#e1ed5e" style="font-size:6.75px; font-family:Arial;" text-anchor="middle"><textPath startOffset="21.40746469413373" xlink:href="#id11">November</textPath></text><path d="M 85.60350026404147 84.71141617570332 l -6.818366623380888 -7.240869070832155 a30.945868906826,30.945868906826 0 0,0 0.3898740768365418,-0.3608616250378999 l 6.693062775230393 7.356848442002421" fill="#ff6c09" stroke="none" /><line stroke="#e1ed5e" stroke-width="0.3" x1="56.869717070023135" x2="54.33264160355391" y1="26.7553504044142" y2="22.446841604673864" /><path d="M 56.362301976729285 25.89364864446614 a86.0,86.0 0 0,1 42.16139366436587,-11.88097634709845" fill="none" id="id12" stroke="none" /><text fill="#e1ed5e" style="font-size:6.75px; font-family:Arial;" text-anchor="middle"><textPath startOffset="22.145653131862474" xlink:href="#id12">December</textPath></text><path d="M 89.97174638481275 81.54914285379989 l -4.300903326867054 -7.9131777005979735 a30.00645050773595,30.00645050773595 0 0,0 0.4546851500051704,-0.24209423213482806 l 4.164429361075322 7.985842400455377" fill="#ff5f08" stroke="none" /><path d="M 91.92203290615298 80.6158196554323 l -16.301218259639967 -39.11698957299626 a63.37768976716779,63.37768976716779 0 0,0 1.0078427027524728,-0.40988085328312546 l 15.627321095697052 39.39105768285867" fill="#33ff50" stroke="none" /><path d="M 92.93061703081487 80.22567764915836 l -0.8404961673234491 -2.351017368806744 a23.496741171150184,23.496741171150184 0 0,0 0.38097641640614965,-0.13252337399244146 l 0.8000139788722952 2.3650991753677713" fill="#ff0000" stroke="none" /><path d="M 98.9189461498227 79.02784411241856 l -2.9624543649786568 -57.47082325453933 a78.5471255704321,78.5471255704321 0 0,0 1.3471738671105837,-0.057853442386119426 l 1.9754547372672528 57.51320926535128" fill="#46fff8" stroke="none" /><path d="M 99.63950707515114 79.00309439819443 l -0.18066539323293046 -10.52285342025887 a31.52440421537323,31.52440421537323 0 0,0 0.54115831808178,-0.004645193308794629 l 2.5777355870579476e-15 10.524404215373231" fill="#ff740a" stroke="none" /></svg>