<?xml version="1.0" encoding="utf-8" ?>
<svg baseProfile="full" height="200mm" version="1.1" viewBox="0,0,200,200" width="200mm" xmlns="http://www.w3.org/2000/svg" xmlns:ev="http://www.w3.org/2001/xml-events" xmlns:xlink="http://www.w3.org/1999/xlink"><defs /><rect fill="#1a1a1a" height="200" width="200" x="0" y="0" /><text alignment-baseline="middle" fill="#e1ed5e" style="dominant-baseline: central; font-size:9.0px; font-family:Arial;" text-anchor="middle" x="100.0" y="100.0">2022</text><line stroke="#e1ed5e" stroke-width="0.3" x1="100.0" x2="100.0" y1="15.0" y2="10.0" /><path d="M 100.0 14.0 a86.0,86.0 0 0,1 42.46469731375804,11.215312516191453" fill="none" id="id73" stroke="none" /><text fill="#e1ed5e" style="font-size:6.75px; font-family:Arial;" text-anchor="middle"><textPath startOffset="22.20632615414155" xlink:href="#id73">January</textPath></text><line stroke="#e1ed5e" stroke-width="0.3" x1="143.23703022742887" x2="145.7803849466894" y1="26.81831364943548" y2="22.513508569990506" /><path d="M 143.74570117128098 25.957352633546492 a86.0,86.0 0 0,1 28.547481713284135,27.462654790039103" fill="none" id="id74" stroke="none" /><text fill="#e1ed5e" style="font-size:6.75px; font-family:Arial;" text-anchor="middle"><textPath startOffset="19.985693538727396" xlink:href="#id74">February</textPath></text><line stroke="#e1ed5e" stroke-width="0.3" x1="172.23445277983987" x2="176.4835382374775" y1="55.19839476539836" y2="52.563006222186495" /><path d="M 173.08426987136738 54.67131705675599 a86.0,86.0 0 0,1 12.851231095245387,41.99856678651699" fill="none" id="id75" stroke="none" /><text fill="#e1ed5e" style="font-size:6.75px; font-family:Arial;" text-anchor="middle"><textPath startOffset="22.20632615414155" xlink:href="#id75">March</textPath></text><line stroke="#e1ed5e" stroke-width="0.3" x1="184.98032266829074" x2="189.97916517819016" y1="98.17113171792111" y2="98.06355123074" /><path d="M 185.9800911702706 98.14961562048488 a86.0,86.0 0 0,1 -9.607161424134198,41.387399972396054" fill="none" id="id76" stroke="none" /><text fill="#e1ed5e" style="font-size:6.75px; font-family:Arial;" text-anchor="middle"><textPath startOffset="21.466115282336823" xlink:href="#id76">April</textPath></text><line stroke="#e1ed5e" stroke-width="0.3" x1="174.80103733775053" x2="179.2010983576182" y1="140.37084112569926" y2="142.7455964860345" /><path d="M 175.68104954172406 140.8457921977663 a86.0,86.0 0 0,1 -30.038265399797805,32.042727171017184" fill="none" id="id77" stroke="none" /><text fill="#e1ed5e" style="font-size:6.75px; font-family:Arial;" text-anchor="middle"><textPath startOffset="22.206326154141568" xlink:href="#id77">May</textPath></text><line stroke="#e1ed5e" stroke-width="0.3" x1="143.8653032363475" x2="146.44561519142675" y1="172.8068346515853" y2="177.08958963109032" /><path d="M 144.38136562736335 173.6633856474863 a86.0,86.0 0 0,1 -40.68145358897372,12.25698825130547" fill="none" id="id78" stroke="none" /><text fill="#e1ed5e" style="font-size:6.75px; font-family:Arial;" text-anchor="middle"><textPath startOffset="21.466115282336833" xlink:href="#id78">June</textPath></text><path d="M 106.91757812671514 119.82793768551818 l 2.2006338662865743 6.307703414416093 a27.680562235147864,27.680562235147864 0 0,0 -0.4512330601145656,0.15308275328431847 l -2.0917310732347816 -6.3446491545985335" fill="#ff4506" stroke="none" /><path d="M 106.57524785965236 119.94407469862006 l 5.024915832527814 15.241599838870844 a37.04855584693702,37.04855584693702 0 0,0 -0.6073822368241264,0.19446461173222626 l -4.761812250612747 -15.325837297262776" fill="#ffc412" stroke="none" /><path d="M 106.2309692047433 120.05430185196036 l 4.648674047671888 14.961703308117535 a36.66725043782837,36.66725043782837 0 0,0 -0.6043549045237739,0.18208717513413591 l -4.390444168707869 -15.039505852357395" fill="#ffbf11" stroke="none" /><path d="M 104.83641907484287 120.43548508189849 l 6.7655798934407505 28.586833531850807 a50.37652332513634,50.37652332513634 0 0,0 -0.8455575912262407,0.1924461548639242 l -6.272502152821648 -28.699056420292415" fill="#99ff23" stroke="none" /><path d="M 102.70371172650421 120.8252237178851 l 0.25157082877575154 1.9377135286987985 a22.953975844577734,22.953975844577734 0 0,0 -0.3922644029790467,0.04749775637986628 l -0.21817900274532454 -1.9417568138040158" fill="#ff0000" stroke="none" /><line stroke="#e1ed5e" stroke-width="0.3" x1="102.19456741930631" x2="102.32365962044197" y1="184.97166512339345" y2="189.96999836594603" /><path d="M 102.22038585953345 185.97133177190398 a86.0,86.0 0 0,1 -42.740103519485714,-10.115201625700543" fill="none" id="id79" stroke="none" /><text fill="#e1ed5e" style="font-size:6.75px; font-family:Arial;" text-anchor="middle"><textPath startOffset="22.20632615414155" xlink:href="#id79">July</textPath></text><path d="M 100.18074693466247 120.99922214144158 l 0.1933808342632444 22.467031621723642 a43.46786385125632,43.46786385125632 0 0,0 -0.7482555378513842,0.0 l 0.1933808342632289 -22.467031621723642" fill="#eaff1a" stroke="none" /><path d="M 99.45781275523022 120.99299961872073 l -0.27814629259693036 10.769572819654424 a31.773164069943647,31.773164069943647 0 0,0 -0.5466189305415766,-0.01882666119824301 l 0.46348557481315 -10.763189360030088" fill="#ff7e0b" stroke="none" /><path d="M 98.37488393609728 120.93702456842531 l -0.5435290135779097 7.0025031219024925 a28.023565601662387,28.023565601662387 0 0,0 -0.4806117327895896,-0.04146920261378983 l 0.663985064109041 -6.992109667010039" fill="#ff4a06" stroke="none" /><path d="M 97.65516085044442 120.86867818915974 l -1.1520464135598623 10.253021350361289 a31.31754126475686,31.31754126475686 0 0,0 -0.5351907970179879,-0.06480415225152795 l 1.3283646336292394 -10.231671669384411" fill="#ff770b" stroke="none" /><path d="M 97.2962882734958 120.8252237178851 l -8.111135179512582 62.47567115365527 a84.0,84.0 0 0,0 -1.4322856352526758,-0.19850173802958038 l 9.185349405952088 -62.32679485013308" fill="#4dd2ff" stroke="none" /><path d="M 95.51606077576429 120.51570834832081 l -2.8200443154229298 12.902763354117107 a34.20734462764172,34.20734462764172 0 0,0 -0.5741618916199055,-0.13067737722205655 l 3.041726356435698 -12.852309243317364" fill="#ff9f0e" stroke="none" /><path d="M 94.81253420990036 120.34920634021253 l -3.6881312860820215 14.467670262715103 a35.93036487209967,35.93036487209967 0 0,0 -0.5980002817175799,-0.15793730954159568 l 3.9366220106110905 -14.402041603869925" fill="#ffb510" stroke="none" /><path d="M 94.11515582081647 120.15858648285463 l -4.15671221066419 14.238854935091492 a35.833180584920555,35.833180584920555 0 0,0 -0.5906076450401387,-0.17794523862220574 l 4.401194830144575 -14.16519432736356" fill="#ffb410" stroke="none" /><path d="M 93.42475214034765 119.94407469862007 l -4.253091051782606 12.900497053090517 a34.58350498625264,34.58350498625264 0 0,0 -0.5637609760909833,-0.19125833198558334 l 4.474521760810815 -12.82537573420681" fill="#ffa40f" stroke="none" /><path d="M 92.40401165467489 119.57807347666478 l -14.479269055734107 37.31919805222239 a61.02963621679991,61.02963621679991 0 0,0 -0.9761223115264571,-0.38841921262500534 l 15.119512443302423 -37.06443199519132" fill="#30ff36" stroke="none" /><line stroke="#e1ed5e" stroke-width="0.3" x1="58.666819895761336" x2="56.23545636021788" y1="174.27360380694188" y2="178.64263932499728" /><path d="M 58.180547188652646 175.14741091055294 a86.0,86.0 0 0,1 -31.652253787137756,-30.449443065178592" fill="none" id="id80" stroke="none" /><text fill="#e1ed5e" style="font-size:6.75px; font-family:Arial;" text-anchor="middle"><textPath startOffset="22.20632615414155" xlink:href="#id80">August</textPath></text><path d="M 86.79598089348748 116.32954008644616 l -8.3272917427087 10.298443468400087 a34.243931653403266,34.243931653403266 0 0,0 -0.45516686859709127,-0.37457134525275354 l 8.503328739850481 -10.153577004290153" fill="#ff9f0e" stroke="none" /><path d="M 83.72743513129214 113.27417163493432 l -12.131885721603817 9.896456681740414 a36.65638866455541,36.65638866455541 0 0,0 -0.3946358517052959,-0.4923689030384986 l 12.300439485363976 -9.686159945123656" fill="#ffbf11" stroke="none" /><path d="M 83.50135304334701 112.99209946851258 l -12.179173240026834 9.59066707678527 a36.502037149623874,36.502037149623874 0 0,0 -0.3844762750071243,-0.4969874133701441 l 12.342456332252027 -9.379601669301874" fill="#ffbd11" stroke="none" /><path d="M 83.28015986056508 112.70617746262583 l -6.254294076095261 4.752926449750234 a28.855348765460107,28.855348765460107 0 0,0 -0.2971259079102207,-0.3980487092676595 l 6.3351812507005665 -4.644564860973269" fill="#ff5507" stroke="none" /><path d="M 83.06392112726016 112.41649034213515 l -6.327804575057512 4.63915673654451 a28.84620200901972,28.84620200901972 0 0,0 -0.2901381322628721,-0.40297648951496107 l 6.4067224996959915 -4.529546641578408" fill="#ff5507" stroke="none" /><path d="M 82.44556493220864 111.52570212397912 l -12.771220670582226 8.385190673484622 a36.27794161683439,36.27794161683439 0 0,0 -0.3382402159651262,-0.5249563265079401 l 12.913665749924398 -8.164112747055235" fill="#ffba11" stroke="none" /><path d="M 82.24976979558568 111.22182372390057 l -13.173630284010807 8.328464202917374 a36.58550130214241,36.58550130214241 0 0,0 -0.33194436540629396,-0.5352000104218596 l 13.315039289085057 -8.10046786113025" fill="#ffbe11" stroke="none" /><path d="M 82.05923443525364 110.91462005526583 l -13.326272311997025 8.107301693093204 a36.59864976452547,36.59864976452547 0 0,0 -0.3227985647625009,-0.5410289618807076 l 13.463851752457758 -7.8767106373263855" fill="#ffbe11" stroke="none" /><line stroke="#e1ed5e" stroke-width="0.3" x1="26.63291911575756" x2="22.317208475507996" y1="142.92168965132927" y2="145.44649492493687" /><path d="M 25.769776987707644 143.4266507060508 a86.0,86.0 0 0,1 -11.730757126820373,-40.83630448921669" fill="none" id="id81" stroke="none" /><text fill="#e1ed5e" style="font-size:6.75px; font-family:Arial;" text-anchor="middle"><textPath startOffset="21.46611528233685" xlink:href="#id81">September</textPath></text><path d="M 81.69416730710424 110.29060199501025 l -14.150588236639695 7.954736284410889 a37.23320599257734,37.23320599257734 0 0,0 -0.3092547369931697,-0.5613871767531834 l 14.285419383084383 -7.709978589259883" fill="#ffc612" stroke="none" /><path d="M 81.02952815118164 109.00673069616217 l -14.17892276293269 6.731816683588335 a36.69583405170458,36.69583405170458 0 0,0 -0.26600178090013643,-0.5729441714295344 l 14.292699160672651 -6.486752444879973" fill="#ffbf11" stroke="none" /><path d="M 80.87730276802145 108.67885076344099 l -13.012103300559934 5.905553034390289 a35.28952024899503,35.28952024899503 0 0,0 -0.2462854194307736,-0.5553086033645287 l 13.111829804721987 -5.680696094533064" fill="#ffad10" stroke="none" /><path d="M 80.73074385275274 108.34839909993369 l -14.284739528012054 6.188858859270462 a36.56777946153916,36.56777946153916 0 0,0 -0.24526361224447207,-0.5797307296461057 l 14.389154121448833 -5.942053603958197" fill="#ffbe11" stroke="none" /><path d="M 80.0844068197444 106.66101706037122 l -13.907825880958695 4.65164480049644 a35.66510893532844,35.66510893532844 0 0,0 -0.189717573163133,-0.5838906516370186 l 13.985835705138078 -4.411555248881617" fill="#ffb210" stroke="none" /><path d="M 79.97269907076064 106.31721596034903 l -15.457856771051336 4.875875179181402 a37.208624084643795,37.208624084643795 0 0,0 -0.18741315523994787,-0.6124770349767433 l 15.539496698797414 -4.6090711716526105" fill="#ffc612" stroke="none" /><path d="M 79.76711848015287 105.62410040840567 l -14.039071088610562 3.9024172293817454 a35.57135468181447,35.57135468181447 0 0,0 -0.15890558142048145,-0.5913467827928655 l 14.104164746372815 -3.6601795134133415" fill="#ffb110" stroke="none" /><path d="M 79.50377843672027 104.57218783832718 l -15.072124164193589 3.362209107104127 a36.44258323276136,36.44258323276136 0 0,0 -0.1313077662700698,-0.6134261694074935 l 15.1277659691881 -3.1022691182804696" fill="#ffbc11" stroke="none" /><path d="M 79.4281124754447 104.21870165774334 l -15.238089513256885 3.124893299833842 a36.55520267143363,36.55520267143363 0 0,0 -0.12110228094951116,-0.6174979215209478 l 15.28962172718206 -2.8621316512449395" fill="#ffbe11" stroke="none" /><path d="M 79.35854240842038 103.8639653848113 l -15.24466877833331 2.853716710704712 a36.50946888923169,36.50946888923169 0 0,0 -0.11031693758706948,-0.6187159713507926 l 15.291532158259567 -2.5908819886207057" fill="#ffbd11" stroke="none" /><path d="M 79.1416061653843 102.43462659150553 l -15.124952221971956 1.7654097034908183 a36.22763445641226,36.22763445641226 0 0,0 -0.06696539960281502,-0.6200164320499129 l 15.153099923075823 -1.5047969495561233" fill="#ffb911" stroke="none" /><path d="M 79.10278846688536 102.07522291339032 l -15.390889305057485 1.5284109122739384 a36.46659346841737,36.46659346841737 0 0,0 -0.0566541587765183,-0.6251739211839785 l 15.414918060111077 -1.2632556025413937" fill="#ffbc11" stroke="none" /><path d="M 79.07016306316243 101.71520430193888 l -15.393267094068422 1.2614813015657307 a36.44486992187146,36.44486992187146 0 0,0 -0.04585708963649999,-0.6256835544626602 l 15.412700742369257 -0.99632461060631" fill="#ffbc11" stroke="none" /><line stroke="#e1ed5e" stroke-width="0.3" x1="15.007084014347285" x2="10.007500721073583" y1="101.09737516637583" y2="101.16192664675087" /><path d="M 14.007167355692545 101.11028546245083 a86.0,86.0 0 0,1 10.666146001902534,-42.60595125391555" fill="none" id="id82" stroke="none" /><text fill="#e1ed5e" style="font-size:6.75px; font-family:Arial;" text-anchor="middle"><textPath startOffset="22.20632615414155" xlink:href="#id82">October</textPath></text><path d="M 79.54389044137918 95.25157060432595 l -21.491695116432744 -4.988817475839431 a43.063119878769186,43.063119878769186 0 0,0 0.17382571829314789,-0.7206198236295857 l 21.402636597878782 5.358022531128413" fill="#efff19" stroke="none" /><path d="M 79.62865764111835 94.90015583598534 l -33.19754455767263 -8.31080745144168 a55.222017549431506,55.222017549431506 0 0,0 0.23877913119098293,-0.9201133966166407 l 33.049569094611336 8.881017273607183" fill="#65ff29" stroke="none" /><line stroke="#e1ed5e" stroke-width="0.3" x1="26.266209847984257" x2="21.92892807433627" y1="57.711370442889674" y2="55.22380399835377" /><path d="M 25.39875349325466 57.213857153982495 a86.0,86.0 0 0,1 29.58750427330802,-30.492523968695096" fill="none" id="id83" stroke="none" /><text fill="#e1ed5e" style="font-size:6.75px; font-family:Arial;" text-anchor="middle"><textPath startOffset="21.46611528233685" xlink:href="#id83">November</textPath></text><line stroke="#e1ed5e" stroke-width="0.3" x1="56.762969772571076" x2="54.21961505331055" y1="26.818313649435495" y2="22.513508569990535" /><path d="M 56.25429882871897 25.957352633546506 a86.0,86.0 0 0,1 42.265352541879196,-11.944610805530505" fill="none" id="id84" stroke="none" /><text fill="#e1ed5e" style="font-size:6.75px; font-family:Arial;" text-anchor="middle"><textPath startOffset="22.20632615414155" xlink:href="#id84">December</textPath></text></svg>